<svg width="60" height="60" viewBox="0 0 60 60" fill="none" xmlns="http://www.w3.org/2000/svg">
<g clip-path="url(#clip0_4772_16425)">
<circle cx="30" cy="30" r="30" fill="#C3A8EC"/>
<path d="M6.3524 29.3696L8.3526 21.8701L13.3526 14.8699L19.8526 10.3701L27.3525 7.86921L40.3526 10.3701L60 29.3696C59.5 37.5 59.4751 41.805 52.8526 49.3701C46.2301 56.9353 39 59.5 32 60L19.8526 51.3701L9.85259 42.3701L6.3524 29.3696Z" fill="#83729D"/>
<path d="M45.2518 32.4684C44.0018 38.7184 39.2893 44.6034 32.6768 45.9184C29.4518 46.5606 26.1063 46.169 23.1168 44.7994C20.1273 43.4297 17.6461 41.1517 16.0265 38.2898C14.407 35.428 13.7316 32.1281 14.0966 28.8601C14.4615 25.592 15.8483 22.5224 18.0593 20.0884C22.5943 15.0934 30.2518 13.7184 36.5018 16.2184" stroke="white" stroke-width="1.875" stroke-linecap="round" stroke-linejoin="round"/>
<path d="M24.002 29.9688L30.252 36.2188L45.252 19.9688" stroke="white" stroke-width="1.875" stroke-linecap="round" stroke-linejoin="round"/>
<g clip-path="url(#clip1_4772_16425)">
<path d="M31.5472 10.3791L30.5554 10.235L30.112 9.33613C30.0999 9.31152 30.08 9.2916 30.0554 9.27949C29.9937 9.24902 29.9187 9.27442 29.8878 9.33613L29.4444 10.235L28.4527 10.3791C28.4253 10.383 28.4003 10.3959 28.3812 10.4154C28.358 10.4392 28.3453 10.4712 28.3457 10.5044C28.3462 10.5376 28.3597 10.5692 28.3835 10.5924L29.1011 11.292L28.9316 12.2799C28.9276 12.3029 28.9301 12.3265 28.9389 12.3481C28.9477 12.3697 28.9623 12.3884 28.9812 12.4021C29.0001 12.4158 29.0224 12.424 29.0457 12.4256C29.0689 12.4273 29.0922 12.4224 29.1128 12.4115L29.9999 11.9451L30.887 12.4115C30.9112 12.4244 30.9394 12.4287 30.9663 12.424C31.0343 12.4123 31.08 12.3479 31.0683 12.2799L30.8987 11.292L31.6163 10.5924C31.6359 10.5732 31.6487 10.5482 31.6527 10.5209C31.6632 10.4525 31.6155 10.3893 31.5472 10.3791Z" fill="white"/>
</g>
<g clip-path="url(#clip2_4772_16425)">
<path d="M42.5472 14.3791L41.5554 14.235L41.112 13.3361C41.0999 13.3115 41.08 13.2916 41.0554 13.2795C40.9937 13.249 40.9187 13.2744 40.8878 13.3361L40.4444 14.235L39.4527 14.3791C39.4253 14.383 39.4003 14.3959 39.3812 14.4154C39.358 14.4392 39.3453 14.4712 39.3457 14.5044C39.3462 14.5376 39.3597 14.5692 39.3835 14.5924L40.1011 15.292L39.9316 16.2799C39.9276 16.3029 39.9301 16.3265 39.9389 16.3481C39.9477 16.3697 39.9623 16.3884 39.9812 16.4021C40.0001 16.4158 40.0224 16.424 40.0457 16.4256C40.0689 16.4273 40.0922 16.4224 40.1128 16.4115L40.9999 15.9451L41.887 16.4115C41.9112 16.4244 41.9394 16.4287 41.9663 16.424C42.0343 16.4123 42.08 16.3479 42.0683 16.2799L41.8987 15.292L42.6163 14.5924C42.6359 14.5732 42.6487 14.5482 42.6527 14.5209C42.6632 14.4525 42.6155 14.3893 42.5472 14.3791Z" fill="white"/>
</g>
<g clip-path="url(#clip3_4772_16425)">
<path d="M19.5472 14.3791L18.5554 14.235L18.112 13.3361C18.0999 13.3115 18.08 13.2916 18.0554 13.2795C17.9937 13.249 17.9187 13.2744 17.8878 13.3361L17.4444 14.235L16.4527 14.3791C16.4253 14.383 16.4003 14.3959 16.3812 14.4154C16.358 14.4392 16.3453 14.4712 16.3457 14.5044C16.3462 14.5376 16.3597 14.5692 16.3835 14.5924L17.1011 15.292L16.9316 16.2799C16.9276 16.3029 16.9301 16.3265 16.9389 16.3481C16.9477 16.3697 16.9623 16.3884 16.9812 16.4021C17.0001 16.4158 17.0224 16.424 17.0457 16.4256C17.0689 16.4273 17.0922 16.4224 17.1128 16.4115L17.9999 15.9451L18.887 16.4115C18.9112 16.4244 18.9394 16.4287 18.9663 16.424C19.0343 16.4123 19.08 16.3479 19.0683 16.2799L18.8987 15.292L19.6163 14.5924C19.6359 14.5732 19.6487 14.5482 19.6527 14.5209C19.6632 14.4525 19.6155 14.3893 19.5472 14.3791Z" fill="white"/>
</g>
<g clip-path="url(#clip4_4772_16425)">
<path d="M13.5472 25.3791L12.5554 25.235L12.112 24.3361C12.0999 24.3115 12.08 24.2916 12.0554 24.2795C11.9937 24.249 11.9187 24.2744 11.8878 24.3361L11.4444 25.235L10.4527 25.3791C10.4253 25.383 10.4003 25.3959 10.3812 25.4154C10.358 25.4392 10.3453 25.4712 10.3457 25.5044C10.3462 25.5376 10.3597 25.5692 10.3835 25.5924L11.1011 26.292L10.9316 27.2799C10.9276 27.3029 10.9301 27.3265 10.9389 27.3481C10.9477 27.3697 10.9623 27.3884 10.9812 27.4021C11.0001 27.4158 11.0224 27.424 11.0457 27.4256C11.0689 27.4273 11.0922 27.4224 11.1128 27.4115L11.9999 26.9451L12.887 27.4115C12.9112 27.4244 12.9394 27.4287 12.9663 27.424C13.0343 27.4123 13.08 27.3479 13.0683 27.2799L12.8987 26.292L13.6163 25.5924C13.6359 25.5732 13.6487 25.5482 13.6527 25.5209C13.6632 25.4525 13.6155 25.3893 13.5472 25.3791Z" fill="white"/>
</g>
<g clip-path="url(#clip5_4772_16425)">
<path d="M50.5472 25.3791L49.5554 25.235L49.112 24.3361C49.0999 24.3115 49.08 24.2916 49.0554 24.2795C48.9937 24.249 48.9187 24.2744 48.8878 24.3361L48.4444 25.235L47.4527 25.3791C47.4253 25.383 47.4003 25.3959 47.3812 25.4154C47.358 25.4392 47.3453 25.4712 47.3457 25.5044C47.3462 25.5376 47.3597 25.5692 47.3835 25.5924L48.1011 26.292L47.9316 27.2799C47.9276 27.3029 47.9301 27.3265 47.9389 27.3481C47.9477 27.3697 47.9623 27.3884 47.9812 27.4021C48.0001 27.4158 48.0224 27.424 48.0457 27.4256C48.0689 27.4273 48.0922 27.4224 48.1128 27.4115L48.9999 26.9451L49.887 27.4115C49.9112 27.4244 49.9394 27.4287 49.9663 27.424C50.0343 27.4123 50.08 27.3479 50.0683 27.2799L49.8987 26.292L50.6163 25.5924C50.6359 25.5732 50.6487 25.5482 50.6527 25.5209C50.6632 25.4525 50.6155 25.3893 50.5472 25.3791Z" fill="white"/>
</g>
<g clip-path="url(#clip6_4772_16425)">
<path d="M49.5472 36.3791L48.5554 36.235L48.112 35.3361C48.0999 35.3115 48.08 35.2916 48.0554 35.2795C47.9937 35.249 47.9187 35.2744 47.8878 35.3361L47.4444 36.235L46.4527 36.3791C46.4253 36.383 46.4003 36.3959 46.3812 36.4154C46.358 36.4392 46.3453 36.4712 46.3457 36.5044C46.3462 36.5376 46.3597 36.5692 46.3835 36.5924L47.1011 37.292L46.9316 38.2799C46.9276 38.3029 46.9301 38.3265 46.9389 38.3481C46.9477 38.3697 46.9623 38.3884 46.9812 38.4021C47.0001 38.4158 47.0224 38.424 47.0457 38.4256C47.0689 38.4273 47.0922 38.4224 47.1128 38.4115L47.9999 37.9451L48.887 38.4115C48.9112 38.4244 48.9394 38.4287 48.9663 38.424C49.0343 38.4123 49.08 38.3479 49.0683 38.2799L48.8987 37.292L49.6163 36.5924C49.6359 36.5732 49.6487 36.5482 49.6527 36.5209C49.6632 36.4525 49.6155 36.3893 49.5472 36.3791Z" fill="white"/>
</g>
<g clip-path="url(#clip7_4772_16425)">
<path d="M42.5472 45.3791L41.5554 45.235L41.112 44.3361C41.0999 44.3115 41.08 44.2916 41.0554 44.2795C40.9937 44.249 40.9187 44.2744 40.8878 44.3361L40.4444 45.235L39.4527 45.3791C39.4253 45.383 39.4003 45.3959 39.3812 45.4154C39.358 45.4392 39.3453 45.4712 39.3457 45.5044C39.3462 45.5376 39.3597 45.5692 39.3835 45.5924L40.1011 46.292L39.9316 47.2799C39.9276 47.3029 39.9301 47.3265 39.9389 47.3481C39.9477 47.3697 39.9623 47.3884 39.9812 47.4021C40.0001 47.4158 40.0224 47.424 40.0457 47.4256C40.0689 47.4273 40.0922 47.4224 40.1128 47.4115L40.9999 46.9451L41.887 47.4115C41.9112 47.4244 41.9394 47.4287 41.9663 47.424C42.0343 47.4123 42.08 47.3479 42.0683 47.2799L41.8987 46.292L42.6163 45.5924C42.6359 45.5732 42.6487 45.5482 42.6527 45.5209C42.6632 45.4525 42.6155 45.3893 42.5472 45.3791Z" fill="white"/>
</g>
<g clip-path="url(#clip8_4772_16425)">
<path d="M31.5472 49.3791L30.5554 49.235L30.112 48.3361C30.0999 48.3115 30.08 48.2916 30.0554 48.2795C29.9937 48.249 29.9187 48.2744 29.8878 48.3361L29.4444 49.235L28.4527 49.3791C28.4253 49.383 28.4003 49.3959 28.3812 49.4154C28.358 49.4392 28.3453 49.4712 28.3457 49.5044C28.3462 49.5376 28.3597 49.5692 28.3835 49.5924L29.1011 50.292L28.9316 51.2799C28.9276 51.3029 28.9301 51.3265 28.9389 51.3481C28.9477 51.3697 28.9623 51.3884 28.9812 51.4021C29.0001 51.4158 29.0224 51.424 29.0457 51.4256C29.0689 51.4273 29.0922 51.4224 29.1128 51.4115L29.9999 50.9451L30.887 51.4115C30.9112 51.4244 30.9394 51.4287 30.9663 51.424C31.0343 51.4123 31.08 51.3479 31.0683 51.2799L30.8987 50.292L31.6163 49.5924C31.6359 49.5732 31.6487 49.5482 31.6527 49.5209C31.6632 49.4525 31.6155 49.3893 31.5472 49.3791Z" fill="white"/>
</g>
<g clip-path="url(#clip9_4772_16425)">
<path d="M19.5472 45.3791L18.5554 45.235L18.112 44.3361C18.0999 44.3115 18.08 44.2916 18.0554 44.2795C17.9937 44.249 17.9187 44.2744 17.8878 44.3361L17.4444 45.235L16.4527 45.3791C16.4253 45.383 16.4003 45.3959 16.3812 45.4154C16.358 45.4392 16.3453 45.4712 16.3457 45.5044C16.3462 45.5376 16.3597 45.5692 16.3835 45.5924L17.1011 46.292L16.9316 47.2799C16.9276 47.3029 16.9301 47.3265 16.9389 47.3481C16.9477 47.3697 16.9623 47.3884 16.9812 47.4021C17.0001 47.4158 17.0224 47.424 17.0457 47.4256C17.0689 47.4273 17.0922 47.4224 17.1128 47.4115L17.9999 46.9451L18.887 47.4115C18.9112 47.4244 18.9394 47.4287 18.9663 47.424C19.0343 47.4123 19.08 47.3479 19.0683 47.2799L18.8987 46.292L19.6163 45.5924C19.6359 45.5732 19.6487 45.5482 19.6527 45.5209C19.6632 45.4525 19.6155 45.3893 19.5472 45.3791Z" fill="white"/>
</g>
<g clip-path="url(#clip10_4772_16425)">
<path d="M13.5472 36.3791L12.5554 36.235L12.112 35.3361C12.0999 35.3115 12.08 35.2916 12.0554 35.2795C11.9937 35.249 11.9187 35.2744 11.8878 35.3361L11.4444 36.235L10.4527 36.3791C10.4253 36.383 10.4003 36.3959 10.3812 36.4154C10.358 36.4392 10.3453 36.4712 10.3457 36.5044C10.3462 36.5376 10.3597 36.5692 10.3835 36.5924L11.1011 37.292L10.9316 38.2799C10.9276 38.3029 10.9301 38.3265 10.9389 38.3481C10.9477 38.3697 10.9623 38.3884 10.9812 38.4021C11.0001 38.4158 11.0224 38.424 11.0457 38.4256C11.0689 38.4273 11.0922 38.4224 11.1128 38.4115L11.9999 37.9451L12.887 38.4115C12.9112 38.4244 12.9394 38.4287 12.9663 38.424C13.0343 38.4123 13.08 38.3479 13.0683 38.2799L12.8987 37.292L13.6163 36.5924C13.6359 36.5732 13.6487 36.5482 13.6527 36.5209C13.6632 36.4525 13.6155 36.3893 13.5472 36.3791Z" fill="white"/>
</g>
<circle cx="29.5" cy="30.5" r="22.56" stroke="white" stroke-width="1.88"/>
</g>
<defs>
<clipPath id="clip0_4772_16425">
<rect width="60" height="60" fill="white"/>
</clipPath>
<clipPath id="clip1_4772_16425">
<rect width="4" height="4" fill="white" transform="translate(28 9)"/>
</clipPath>
<clipPath id="clip2_4772_16425">
<rect width="4" height="4" fill="white" transform="translate(39 13)"/>
</clipPath>
<clipPath id="clip3_4772_16425">
<rect width="4" height="4" fill="white" transform="translate(16 13)"/>
</clipPath>
<clipPath id="clip4_4772_16425">
<rect width="4" height="4" fill="white" transform="translate(10 24)"/>
</clipPath>
<clipPath id="clip5_4772_16425">
<rect width="4" height="4" fill="white" transform="translate(47 24)"/>
</clipPath>
<clipPath id="clip6_4772_16425">
<rect width="4" height="4" fill="white" transform="translate(46 35)"/>
</clipPath>
<clipPath id="clip7_4772_16425">
<rect width="4" height="4" fill="white" transform="translate(39 44)"/>
</clipPath>
<clipPath id="clip8_4772_16425">
<rect width="4" height="4" fill="white" transform="translate(28 48)"/>
</clipPath>
<clipPath id="clip9_4772_16425">
<rect width="4" height="4" fill="white" transform="translate(16 44)"/>
</clipPath>
<clipPath id="clip10_4772_16425">
<rect width="4" height="4" fill="white" transform="translate(10 35)"/>
</clipPath>
</defs>
</svg>
