<svg width="60" height="60" viewBox="0 0 60 60" fill="none" xmlns="http://www.w3.org/2000/svg">
<g clip-path="url(#clip0_4763_16405)">
<circle cx="30" cy="30" r="30" fill="#DE0800"/>
<path d="M14.0002 13.9994L24 14.9996L25.6813 16.9993L26 19.9996L46 20.5L60 29.4997C60.0152 35.6019 59.0062 38.9756 56 45C52.4713 50.7218 50.0998 53.1988 45 55.9997L10 44.9997L10.5002 16.9993L14.0002 13.9994Z" fill="#AA0600"/>
<path d="M44.9023 19.736H26.2623V18.304C26.2623 15.932 24.3303 14 21.9583 14H14.3103C11.9383 14 10.0063 15.932 10.0063 18.304V43.16L10.0023 43.648C9.99426 44.468 9.99026 44.92 10.3063 45.236C10.5943 45.528 11.0103 45.552 11.5623 45.552L44.8983 45.544C47.2703 45.544 49.1983 43.616 49.1983 41.244V24.04C49.2023 21.668 47.2743 19.736 44.9023 19.736ZM22.0383 34.512V36.98H16.3783V34.512H22.0383ZM16.3783 33.792V31.324H22.0343V33.792H16.3783ZM22.0383 37.7V40.168H16.3783V37.7H22.0383ZM27.6943 36.98V34.512H33.3503V36.98H27.6943ZM33.3503 37.7V40.168H27.6943V37.7H33.3503ZM33.1703 30.332H25.1023V35.508H27.0143V35.988H25.1023H24.6263H22.7143V35.508H24.6263V30.332V29.852H25.1023H33.1703V30.332ZM33.3503 31.324V28.856H39.0063V31.32H33.3503V31.324ZM48.2503 41.248C48.2503 43.092 46.7503 44.592 44.9023 44.592H44.2183C44.6263 44.24 44.9023 43.736 44.9023 43.156V25.952C44.9023 24.9 44.0423 24.04 42.9903 24.04H23.8703C22.8183 24.04 21.9583 23.18 21.9583 22.128V20.216C21.9583 19.164 21.0983 18.304 20.0463 18.304H12.3983C11.8223 18.304 11.3143 18.58 10.9623 18.988V18.304C10.9623 16.456 12.4623 14.956 14.3103 14.956H21.9583C23.8023 14.956 25.3063 16.46 25.3063 18.304V20.692H44.9063C46.7503 20.692 48.2543 22.192 48.2543 24.04L48.2503 41.248Z" fill="white"/>
</g>
<defs>
<clipPath id="clip0_4763_16405">
<rect width="60" height="60" fill="white"/>
</clipPath>
</defs>
</svg>
