<svg width="60" height="60" viewBox="0 0 60 60" fill="none" xmlns="http://www.w3.org/2000/svg">
<g clip-path="url(#clip0_4829_16428)">
<circle cx="30" cy="30" r="30" fill="#9986EF"/>
<path d="M18.5 12L32.5 9L60 27C60.1047 35.1124 59.0818 38.5168 56.5 44C52.4039 51.0757 49.1448 53.9325 42 57.5L17 48.5L9.5 39.5V24L18.5 12Z" fill="#6E60B0"/>
<path d="M36.2815 35.6053V44H38.6058H40.9301V35.6053V27.2106H38.6058H36.2815V35.6053Z" fill="white"/>
<path d="M30.6484 36.9999V44H32.9999H35.3516V36.9999V29.9998H32.9999H30.6484V36.9999Z" fill="white"/>
<path d="M25.0703 38.3945V44H27.4218H29.7732V38.3945V32.789H27.4218H25.0703V38.3945Z" fill="white"/>
<path d="M19.4919 39.7891V44H21.8163H24.1406V39.7891V35.5782H21.8163H19.4919V39.7891Z" fill="white"/>
<path d="M37.6485 16.4654V16.9303H38.1517H38.6603L37.2931 18.3029C36.5385 19.0574 34.7993 20.7803 33.421 22.1366L30.9164 24.603L29.5327 23.2304C28.7724 22.4701 28.1273 21.8523 28.0998 21.8523C28.0724 21.8523 26.0107 23.9032 23.5223 26.4133L19 30.9742V32.3633V33.7471L23.5555 29.1913L28.1055 24.6412L29.5164 26.0467L30.9219 27.4576L35.6579 22.6832C38.2611 20.0637 40.4157 17.9143 40.4431 17.9143C40.4706 17.9143 40.4923 18.2206 40.4923 18.598V19.2817H40.9571H41.422V17.6411V16.0006H39.5351H37.6482V16.4654H37.6485Z" fill="white"/>
<circle cx="29.5" cy="30.5" r="21" stroke="white" stroke-width="3"/>
</g>
<defs>
<clipPath id="clip0_4829_16428">
<rect width="60" height="60" fill="white"/>
</clipPath>
</defs>
</svg>
