<svg width="60" height="60" viewBox="0 0 60 60" fill="none" xmlns="http://www.w3.org/2000/svg">
<circle cx="30" cy="30" r="30" fill="url(#paint0_linear_4842_16570)"/>
<path d="M28.21 38.1332C27.6517 38.1332 27.2017 37.6803 27.2017 37.1249C27.2017 36.5695 27.6545 36.1166 28.21 36.1166H33.8639C34.4221 36.1166 34.8722 36.5695 34.8722 37.1249C34.8722 37.6803 34.4193 38.1332 33.8639 38.1332H28.21ZM19.6166 37.1335C19.3888 36.7917 19.4799 36.3302 19.8217 36.0995C20.1635 35.8717 20.6249 35.9628 20.8556 36.3046L21.2601 36.9084L22.8694 34.9488C23.1314 34.6327 23.5986 34.5871 23.9176 34.8463C24.2337 35.1083 24.2793 35.5754 24.0201 35.8945L21.7927 38.6032C21.7443 38.6659 21.6845 38.7228 21.6161 38.7684C21.2743 38.9963 20.8129 38.9051 20.5822 38.5633L19.6166 37.1335ZM19.6166 30.0412C19.3888 29.6994 19.4799 29.238 19.8217 29.0072C20.1635 28.7794 20.6249 28.8705 20.8556 29.2123L21.2601 29.8162L22.8694 27.8565C23.1314 27.5404 23.5986 27.4948 23.9176 27.754C24.2337 28.016 24.2793 28.4832 24.0201 28.8022L21.7927 31.5109C21.7443 31.5736 21.6845 31.6305 21.6161 31.6761C21.2743 31.904 20.8129 31.8128 20.5822 31.471L19.6166 30.0412ZM19.6166 22.946C19.3888 22.6042 19.4799 22.1428 19.8217 21.9121C20.1635 21.6842 20.6249 21.7754 20.8556 22.1172L21.2601 22.721L22.8694 20.7614C23.1314 20.4452 23.5986 20.3997 23.9176 20.6589C24.2337 20.9209 24.2793 21.388 24.0201 21.707L21.7927 24.4158C21.7443 24.4784 21.6845 24.5354 21.6161 24.581C21.2743 24.8088 20.8129 24.7177 20.5822 24.3759L19.6166 22.946ZM28.21 23.1169C27.6517 23.1169 27.2017 22.6641 27.2017 22.1086C27.2017 21.5532 27.6545 21.1003 28.21 21.1003H38.5465C39.1047 21.1003 39.5548 21.5532 39.5548 22.1086C39.5548 22.6641 39.1019 23.1169 38.5465 23.1169H28.21ZM15.3413 12H44.1149C44.7615 12 45.3482 12.262 45.7698 12.6836C46.1913 13.1051 46.4534 13.6919 46.4534 14.3385V44.6558C46.4534 45.3024 46.1913 45.8892 45.7698 46.3107C45.3482 46.7323 44.7615 46.9943 44.1149 46.9943H15.3413C14.6947 46.9943 14.108 46.7323 13.6864 46.3107C13.262 45.8949 13 45.3053 13 44.6587V14.3413C13 13.6947 13.262 13.1051 13.6836 12.6836C14.1051 12.262 14.6947 12 15.3413 12ZM44.1149 14.0166H15.3413C15.2502 14.0166 15.1676 14.0536 15.1077 14.1134C15.0479 14.1733 15.0109 14.2559 15.0109 14.347V44.6644C15.0109 44.7555 15.0479 44.8381 15.1077 44.898C15.1676 44.9578 15.2502 44.9948 15.3413 44.9948H44.1149C44.2061 44.9948 44.2887 44.9578 44.3485 44.898C44.4083 44.8381 44.4453 44.7555 44.4453 44.6644V14.347C44.4453 14.2559 44.4083 14.1733 44.3485 14.1134C44.2858 14.0536 44.2032 14.0166 44.1149 14.0166ZM28.21 30.6251C27.6517 30.6251 27.2017 30.1722 27.2017 29.6168C27.2017 29.0614 27.6545 28.6085 28.21 28.6085H38.5465C39.1047 28.6085 39.5548 29.0614 39.5548 29.6168C39.5548 30.1722 39.1019 30.6251 38.5465 30.6251H28.21Z" fill="white"/>
<defs>
<linearGradient id="paint0_linear_4842_16570" x1="3.5" y1="12.5" x2="46" y2="37.5" gradientUnits="userSpaceOnUse">
<stop offset="0.411458" stop-color="#51A43C"/>
<stop offset="1" stop-color="#2C8815"/>
</linearGradient>
</defs>
</svg>
