<svg width="60" height="60" viewBox="0 0 60 60" fill="none" xmlns="http://www.w3.org/2000/svg">
<g clip-path="url(#clip0_4844_16574)">
<circle cx="30" cy="30" r="30" fill="url(#paint0_linear_4844_16574)"/>
<g clip-path="url(#clip1_4844_16574)">
<path d="M38.9259 37.754V44.4077C38.9259 44.7647 38.6349 45.0558 38.2779 45.0558H14.9445C14.5881 45.0558 14.2962 44.7647 14.2962 44.4077V16.6253H38.9259V24.1644V28.1496H40.2222V14.5929C40.2222 13.5208 39.35 12.6484 38.2777 12.6484H14.9445C13.8721 12.6484 13 13.5206 13 14.5929V44.4077C13 45.4799 13.8721 46.3522 14.9445 46.3522H38.2777C39.3498 46.3522 40.2222 45.4801 40.2222 44.4077V33.7689H38.9259V37.754ZM37.4777 14.0301C37.9919 14.0301 38.407 14.4465 38.407 14.9613C38.407 15.476 37.9919 15.8918 37.4777 15.8918C36.9636 15.8918 36.5462 15.476 36.5462 14.9613C36.5462 14.4465 36.9636 14.0301 37.4777 14.0301ZM34.3483 14.0301C34.8624 14.0301 35.2801 14.4465 35.2801 14.9613C35.2801 15.476 34.8634 15.8918 34.3483 15.8918C33.8343 15.8918 33.4177 15.476 33.4177 14.9613C33.4177 14.4465 33.8343 14.0301 34.3483 14.0301ZM31.219 14.0301C31.7329 14.0301 32.1506 14.4465 32.1506 14.9613C32.1506 15.476 31.734 15.8918 31.219 15.8918C30.7049 15.8918 30.2897 15.476 30.2897 14.9613C30.2897 14.4465 30.7051 14.0301 31.219 14.0301Z" fill="white"/>
<path d="M37.6297 29.4471V26.4229L29.8521 30.9598L37.6297 35.4969V32.4726H48.0002V29.4471H37.6297Z" fill="white"/>
</g>
</g>
<defs>
<linearGradient id="paint0_linear_4844_16574" x1="60" y1="30" x2="-21" y2="34.5" gradientUnits="userSpaceOnUse">
<stop stop-color="#00CF26"/>
<stop offset="0.993081" stop-color="#3D7146"/>
</linearGradient>
<clipPath id="clip0_4844_16574">
<rect width="60" height="60" fill="white"/>
</clipPath>
<clipPath id="clip1_4844_16574">
<rect width="35" height="35.0002" fill="white" transform="translate(13 12)"/>
</clipPath>
</defs>
</svg>
