<svg width="60" height="60" viewBox="0 0 60 60" fill="none" xmlns="http://www.w3.org/2000/svg">
<circle cx="30" cy="30" r="30" fill="url(#paint0_linear_4842_16571)"/>
<path d="M19.4659 25.1835L31.6884 14.629C32.7583 13.705 34.4444 14.4551 34.4444 15.8903V21.6378C43.4154 22.3483 50 25.2636 50 34.3842C50 38.6509 47.2512 42.8778 44.213 45.0878C43.2649 45.7774 41.9136 44.9119 42.2632 43.794C44.9376 35.241 41.9908 32.0244 34.4444 31.154V36.9995C34.4444 38.4371 32.7569 39.1837 31.6884 38.2609L19.4659 27.7062C18.6971 27.0423 18.696 25.8484 19.4659 25.1835V25.1835ZM10.577 27.7062L22.7995 38.2608C23.868 39.1837 25.5555 38.437 25.5555 36.9994V35.901L18.0135 29.3881C17.5906 29.0231 17.2514 28.5713 17.019 28.0633C16.7866 27.5554 16.6664 27.0033 16.6667 26.4447C16.6664 25.8862 16.7866 25.3342 17.019 24.8263C17.2514 24.3184 17.5906 23.8666 18.0134 23.5017L25.5555 16.9887V15.8903C25.5555 14.4551 23.8694 13.705 22.7995 14.629L10.577 25.1835C9.80714 25.8484 9.80819 27.0423 10.577 27.7062V27.7062Z" fill="white"/>
<defs>
<linearGradient id="paint0_linear_4842_16571" x1="3.5" y1="12.5" x2="46" y2="37.5" gradientUnits="userSpaceOnUse">
<stop offset="0.411458" stop-color="#6A3CA4"/>
<stop offset="1" stop-color="#711588"/>
</linearGradient>
</defs>
</svg>
