<svg width="60" height="60" viewBox="0 0 60 60" fill="none" xmlns="http://www.w3.org/2000/svg">
<circle cx="30" cy="30" r="30" fill="url(#paint0_linear_4842_16569)"/>
<g clip-path="url(#clip0_4842_16569)">
<path d="M18.1623 42.3077C18.1623 41.891 18.01 41.5304 17.7055 41.226C17.4011 40.9215 17.0405 40.7692 16.6238 40.7692C16.2071 40.7692 15.8466 40.9215 15.5421 41.226C15.2376 41.5304 15.0853 41.891 15.0853 42.3077C15.0853 42.7244 15.2376 43.0849 15.5421 43.3894C15.8466 43.6939 16.2071 43.8462 16.6238 43.8462C17.0405 43.8462 17.4011 43.6939 17.7055 43.3894C18.01 43.0849 18.1623 42.7244 18.1623 42.3077ZM45.8546 28.4615C45.8546 27.6442 45.5421 26.9271 44.9171 26.3101C44.2921 25.6931 43.5789 25.3846 42.7777 25.3846H34.3161C34.3161 24.4551 34.7007 23.1771 35.47 21.5505C36.2392 19.9239 36.6238 18.6378 36.6238 17.6923C36.6238 16.1218 36.3674 14.9599 35.8546 14.2067C35.3418 13.4535 34.3161 13.0769 32.7777 13.0769C32.361 13.4936 32.0565 14.1747 31.8642 15.1202C31.6719 16.0657 31.4275 17.0713 31.131 18.137C30.8345 19.2027 30.3578 20.0801 29.7007 20.7692C29.3482 21.1378 28.7312 21.867 27.8498 22.9567C27.7857 23.0369 27.6014 23.2772 27.2969 23.6779C26.9924 24.0785 26.74 24.4071 26.5397 24.6635C26.3394 24.9199 26.0629 25.2604 25.7103 25.6851C25.3578 26.1098 25.0373 26.4623 24.7488 26.7428C24.4603 27.0232 24.1519 27.3077 23.8233 27.5962C23.4948 27.8846 23.1743 28.101 22.8618 28.2452C22.5493 28.3894 22.2648 28.4615 22.0084 28.4615H21.2392V43.8462H22.0084C22.2168 43.8462 22.4692 43.8702 22.7656 43.9183C23.0621 43.9663 23.3265 44.0184 23.5589 44.0745C23.7913 44.1306 24.0958 44.2188 24.4724 44.3389C24.849 44.4591 25.1294 44.5513 25.3137 44.6154C25.498 44.6795 25.7825 44.7796 26.1671 44.9159C26.5517 45.0521 26.7841 45.1362 26.8642 45.1683C30.2456 46.3381 32.986 46.9231 35.0853 46.9231H37.994C41.0709 46.9231 42.6094 45.5849 42.6094 42.9087C42.6094 42.492 42.5693 42.0433 42.4892 41.5625C42.97 41.3061 43.3506 40.8854 43.631 40.3005C43.9115 39.7155 44.0517 39.1266 44.0517 38.5337C44.0517 37.9407 43.9075 37.3878 43.619 36.875C44.4684 36.0737 44.893 35.1202 44.893 34.0144C44.893 33.6138 44.8129 33.1691 44.6527 32.6803C44.4924 32.1915 44.2921 31.8109 44.0517 31.5385C44.5645 31.5224 44.9932 31.1458 45.3378 30.4087C45.6823 29.6715 45.8546 29.0224 45.8546 28.4615ZM48.9315 28.4375C48.9315 29.8638 48.5389 31.1699 47.7536 32.3558C47.8978 32.8846 47.97 33.4375 47.97 34.0144C47.97 35.2484 47.6655 36.4022 47.0565 37.476C47.1046 37.8125 47.1286 38.1571 47.1286 38.5096C47.1286 40.1282 46.6478 41.5545 45.6863 42.7885C45.7023 45.016 45.0212 46.7748 43.643 48.0649C42.2648 49.355 40.4459 50 38.1863 50H35.0853C33.5469 50 32.0285 49.8197 30.5301 49.4591C29.0317 49.0986 27.2969 48.5737 25.3257 47.8846C23.4668 47.2436 22.361 46.9231 22.0084 46.9231H15.0853C14.236 46.9231 13.5108 46.6226 12.9099 46.0216C12.3089 45.4207 12.0084 44.6955 12.0084 43.8462V28.4615C12.0084 27.6122 12.3089 26.887 12.9099 26.2861C13.5108 25.6851 14.236 25.3846 15.0853 25.3846H21.6719C22.2488 25 23.3466 23.758 24.9652 21.6587C25.8946 20.4567 26.752 19.4311 27.5373 18.5817C27.9219 18.1811 28.2063 17.496 28.3906 16.5264C28.5749 15.5569 28.8193 14.5433 29.1238 13.4856C29.4283 12.4279 29.9251 11.5625 30.6142 10.8894C31.2392 10.2965 31.9603 10 32.7777 10C34.1238 10 35.3337 10.2604 36.4075 10.7813C37.4812 11.3021 38.2985 12.1154 38.8594 13.2212C39.4203 14.3269 39.7007 15.8173 39.7007 17.6923C39.7007 19.1827 39.3161 20.7212 38.5469 22.3077H42.7777C44.4443 22.3077 45.8866 22.9167 47.1046 24.1346C48.3225 25.3526 48.9315 26.7869 48.9315 28.4375Z" fill="white"/>
</g>
<defs>
<linearGradient id="paint0_linear_4842_16569" x1="26" y1="30" x2="60" y2="36.5" gradientUnits="userSpaceOnUse">
<stop offset="0.411458" stop-color="#FECC4F"/>
<stop offset="0.953125" stop-color="#FFB703"/>
<stop offset="1" stop-color="#FECC4F" stop-opacity="0"/>
</linearGradient>
<clipPath id="clip0_4842_16569">
<rect width="36.94" height="40" fill="white" transform="translate(12 10)"/>
</clipPath>
</defs>
</svg>
