<svg width="60" height="60" viewBox="0 0 60 60" fill="none" xmlns="http://www.w3.org/2000/svg">
<g clip-path="url(#clip0_4771_16408)">
<circle cx="30" cy="30" r="30" fill="#00CF26"/>
<path d="M32.914 7.72011L57.7065 18.4729C60.6689 27.581 61.075 31.8916 57.7065 41.4729C54.338 51.0542 42.9368 57.0652 43.2016 56.4729L24.7017 51.4727L13.7016 43.9729L8.70163 34.4729L10.2016 19.9726L20.2065 10.2063L32.914 7.72011Z" fill="#008719"/>
<circle cx="30.5" cy="29.5" r="21.5" stroke="white" stroke-width="2"/>
<g clip-path="url(#clip1_4771_16408)">
<path d="M37.625 33.75C36.3003 33.75 35.0828 34.2081 34.1217 34.9743L28.1166 31.2212C28.2945 30.4167 28.2945 29.5832 28.1166 28.7788L34.1217 25.0256C35.0828 25.7919 36.3003 26.25 37.625 26.25C40.7316 26.25 43.25 23.7316 43.25 20.625C43.25 17.5184 40.7316 15 37.625 15C34.5184 15 32 17.5184 32 20.625C32 21.0444 32.0463 21.4529 32.1334 21.8462L26.1283 25.5993C25.1672 24.8331 23.9497 24.375 22.625 24.375C19.5184 24.375 17 26.8934 17 30C17 33.1066 19.5184 35.625 22.625 35.625C23.9497 35.625 25.1672 35.1669 26.1283 34.4007L32.1334 38.1538C32.0446 38.5548 31.9999 38.9643 32 39.375C32 42.4816 34.5184 45 37.625 45C40.7316 45 43.25 42.4816 43.25 39.375C43.25 36.2684 40.7316 33.75 37.625 33.75Z" fill="white"/>
</g>
</g>
<defs>
<clipPath id="clip0_4771_16408">
<rect width="60" height="60" fill="white"/>
</clipPath>
<clipPath id="clip1_4771_16408">
<rect width="26.25" height="30" fill="white" transform="translate(17 15)"/>
</clipPath>
</defs>
</svg>
