<svg width="60" height="60" viewBox="0 0 60 60" fill="none" xmlns="http://www.w3.org/2000/svg">
<g clip-path="url(#clip0_4844_16573)">
<circle cx="30" cy="30" r="30" fill="url(#paint0_linear_4844_16573)"/>
<g clip-path="url(#clip1_4844_16573)">
<path d="M17.8072 32.005V19.4326H46.8821V46.951H17.8072V42.4019C17.8168 42.3267 17.8102 42.2504 17.7881 42.178C17.7659 42.1056 17.7285 42.0388 17.6785 41.982C17.6284 41.9251 17.5669 41.8796 17.4979 41.8484C17.4289 41.8172 17.354 41.8011 17.2783 41.8011C17.2026 41.8011 17.1277 41.8172 17.0587 41.8484C16.9897 41.8796 16.9281 41.9251 16.8781 41.982C16.8281 42.0388 16.7907 42.1056 16.7685 42.178C16.7463 42.2504 16.7398 42.3267 16.7494 42.4019V47.4584C16.7483 47.528 16.761 47.5971 16.7869 47.6618C16.8127 47.7264 16.8512 47.7852 16.9 47.8349C16.9488 47.8845 17.007 47.9239 17.0712 47.9508C17.1354 47.9777 17.2044 47.9915 17.274 47.9915H47.3981C47.5395 47.9915 47.6751 47.9354 47.7751 47.8354C47.8751 47.7354 47.9312 47.5998 47.9312 47.4584V13.6279C47.9312 13.4865 47.8751 13.3509 47.7751 13.2509C47.6751 13.1509 47.5395 13.0947 47.3981 13.0947H17.2998C17.2302 13.0947 17.1612 13.1086 17.097 13.1355C17.0328 13.1624 16.9746 13.2018 16.9258 13.2514C16.877 13.301 16.8385 13.3599 16.8127 13.4245C16.7868 13.4891 16.7741 13.5583 16.7752 13.6279V32.005C16.7656 32.0802 16.7721 32.1565 16.7943 32.2289C16.8165 32.3013 16.8539 32.3681 16.9039 32.4249C16.9539 32.4818 17.0155 32.5273 17.0845 32.5585C17.1535 32.5897 17.2284 32.6058 17.3041 32.6058C17.3798 32.6058 17.4547 32.5897 17.5237 32.5585C17.5927 32.5273 17.6542 32.4818 17.7043 32.4249C17.7543 32.3681 17.7917 32.3013 17.8139 32.2289C17.836 32.1565 17.8426 32.0802 17.833 32.005H17.8072ZM17.8072 14.1439H46.8821V18.3834H17.8072V14.1439Z" fill="white"/>
<path d="M44.2591 15.8897C44.1642 15.9901 44.1092 16.1215 44.1043 16.2595C44.1019 16.3295 44.1153 16.3991 44.1436 16.4631C44.1719 16.5271 44.2143 16.5839 44.2677 16.6293C44.3138 16.6817 44.3707 16.7234 44.4346 16.7517C44.4984 16.7799 44.5677 16.7939 44.6374 16.7927C44.7084 16.7934 44.7788 16.7793 44.844 16.7511C44.9092 16.723 44.9677 16.6815 45.0158 16.6293C45.0662 16.582 45.1061 16.5247 45.1328 16.4609C45.1594 16.3972 45.1723 16.3286 45.1706 16.2595C45.1657 16.1215 45.1107 15.9901 45.0158 15.8897C44.9127 15.7948 44.7776 15.7422 44.6374 15.7422C44.4973 15.7422 44.3622 15.7948 44.2591 15.8897Z" fill="white"/>
<path d="M41.2063 16.2589C41.204 16.3289 41.2159 16.3985 41.2413 16.4637C41.2667 16.5289 41.3052 16.5882 41.3542 16.6381C41.4033 16.688 41.462 16.7273 41.5267 16.7538C41.5915 16.7803 41.661 16.7933 41.7309 16.7921C41.8685 16.7876 41.9989 16.7292 42.0938 16.6294C42.1887 16.5297 42.2406 16.3966 42.2383 16.2589C42.236 16.119 42.1789 15.9856 42.0791 15.8875C41.9794 15.7893 41.845 15.7344 41.7051 15.7344C41.5705 15.741 41.4436 15.7992 41.3508 15.8968C41.2579 15.9945 41.2062 16.1242 41.2063 16.2589V16.2589Z" fill="white"/>
<path d="M38.446 15.8891C38.3511 15.9894 38.2961 16.1209 38.2912 16.2589C38.2895 16.328 38.3024 16.3966 38.329 16.4603C38.3557 16.5241 38.3956 16.5814 38.446 16.6287C38.4941 16.6809 38.5526 16.7224 38.6178 16.7505C38.683 16.7787 38.7533 16.7928 38.8243 16.7921C38.8952 16.7918 38.9652 16.7772 39.0302 16.7491C39.0953 16.721 39.1539 16.68 39.2027 16.6287C39.252 16.581 39.2905 16.5233 39.3158 16.4596C39.341 16.3958 39.3523 16.3274 39.3489 16.2589C39.3454 16.1196 39.2938 15.9859 39.2027 15.8805C39.0976 15.7886 38.9623 15.7387 38.8227 15.7403C38.6831 15.7419 38.549 15.7948 38.446 15.8891V15.8891Z" fill="white"/>
<path d="M20.9805 23.7405V25.899C20.9827 26.1781 21.0952 26.4449 21.2933 26.6414C21.4914 26.8379 21.7592 26.9482 22.0382 26.9482H24.1795C24.454 26.9415 24.7152 26.8283 24.9078 26.6325C25.1004 26.4367 25.2093 26.1736 25.2114 25.899V23.7405C25.2093 23.4659 25.1004 23.2029 24.9078 23.0071C24.7152 22.8113 24.454 22.6981 24.1795 22.6914H22.0382C21.7592 22.6914 21.4914 22.8017 21.2933 22.9982C21.0952 23.1947 20.9827 23.4615 20.9805 23.7405V23.7405ZM24.1795 25.899H22.0382V23.7405H24.1795V25.899Z" fill="white"/>
<path d="M22.0382 42.6252C21.8991 42.6252 21.7657 42.6804 21.6673 42.7788C21.5689 42.8772 21.5137 43.0106 21.5137 43.1497C21.5137 43.2889 21.5689 43.4223 21.6673 43.5207C21.7657 43.6191 21.8991 43.6743 22.0382 43.6743H24.1795C24.4586 43.6743 24.7263 43.5641 24.9244 43.3676C25.1225 43.1711 25.235 42.9042 25.2373 42.6252V40.5183C25.2384 40.3783 25.2119 40.2394 25.1594 40.1096C25.1068 39.9798 25.0292 39.8616 24.931 39.7618C24.8328 39.6619 24.7159 39.5824 24.5869 39.5278C24.458 39.4732 24.3196 39.4445 24.1795 39.4434H23.096C22.9651 39.4599 22.8448 39.5237 22.7576 39.6226C22.6704 39.7216 22.6223 39.8489 22.6223 39.9808C22.6223 40.1127 22.6704 40.2401 22.7576 40.339C22.8448 40.438 22.9651 40.5017 23.096 40.5183H24.1795V42.6424L22.0382 42.6252Z" fill="white"/>
<path d="M43.7777 22.6914H39.5639C39.4225 22.6914 39.2869 22.7476 39.1869 22.8476C39.0869 22.9476 39.0308 23.0832 39.0308 23.2246C39.0307 23.2938 39.0446 23.3623 39.0716 23.4261C39.0986 23.4898 39.1382 23.5475 39.1879 23.5956C39.2377 23.6438 39.2966 23.6814 39.3612 23.7063C39.4258 23.7312 39.4947 23.7429 39.5639 23.7405H43.7777C43.8469 23.7429 43.9158 23.7312 43.9804 23.7063C44.045 23.6814 44.104 23.6438 44.1537 23.5956C44.2035 23.5475 44.243 23.4898 44.27 23.4261C44.297 23.3623 44.3109 23.2938 44.3109 23.2246C44.3109 23.0832 44.2547 22.9476 44.1547 22.8476C44.0547 22.7476 43.9191 22.6914 43.7777 22.6914Z" fill="white"/>
<path d="M28.4792 22.6914C28.4096 22.6914 28.3407 22.7052 28.2765 22.7321C28.2123 22.759 28.1541 22.7985 28.1052 22.8481C28.0564 22.8977 28.018 22.9565 27.9921 23.0212C27.9663 23.0858 27.9535 23.155 27.9547 23.2246C27.9535 23.2934 27.9663 23.3617 27.9923 23.4255C28.0184 23.4892 28.0571 23.5469 28.1062 23.5952C28.1552 23.6435 28.2136 23.6812 28.2778 23.7062C28.3419 23.7312 28.4104 23.7429 28.4792 23.7405H36.4166C36.4854 23.7429 36.5539 23.7312 36.6181 23.7062C36.6822 23.6812 36.7406 23.6435 36.7897 23.5952C36.8387 23.5469 36.8775 23.4892 36.9035 23.4255C36.9296 23.3617 36.9424 23.2934 36.9412 23.2246C36.9423 23.155 36.9296 23.0858 36.9037 23.0212C36.8779 22.9565 36.8394 22.8977 36.7906 22.8481C36.7418 22.7985 36.6835 22.759 36.6193 22.7321C36.5551 22.7052 36.4862 22.6914 36.4166 22.6914H28.4792Z" fill="white"/>
<path d="M34.2667 26.3891C34.2655 26.4594 34.2785 26.5293 34.3049 26.5945C34.3313 26.6597 34.3705 26.7189 34.4202 26.7687C34.47 26.8184 34.5292 26.8577 34.5944 26.884C34.6597 26.9104 34.7295 26.9234 34.7998 26.9223H40.6131C40.7522 26.9223 40.8857 26.867 40.984 26.7686C41.0824 26.6702 41.1377 26.5368 41.1377 26.3977C41.1377 26.2586 41.0824 26.1251 40.984 26.0268C40.8857 25.9284 40.7522 25.8731 40.6131 25.8731H34.7998C34.731 25.872 34.6625 25.8844 34.5984 25.9097C34.5344 25.9351 34.4759 25.9727 34.4264 26.0207C34.3769 26.0686 34.3373 26.1258 34.3099 26.189C34.2825 26.2522 34.2678 26.3202 34.2667 26.3891Z" fill="white"/>
<path d="M28.4792 26.9222H32.1855C32.3247 26.9222 32.4581 26.8669 32.5565 26.7685C32.6549 26.6702 32.7101 26.5367 32.7101 26.3976C32.7101 26.2585 32.6549 26.1251 32.5565 26.0267C32.4581 25.9283 32.3247 25.873 32.1855 25.873H28.4792C28.34 25.873 28.2066 25.9283 28.1082 26.0267C28.0099 26.1251 27.9546 26.2585 27.9546 26.3976C27.9546 26.5367 28.0099 26.6702 28.1082 26.7685C28.2066 26.8669 28.34 26.9222 28.4792 26.9222Z" fill="white"/>
<path d="M43.7777 31.0587H34.258C34.1896 31.0575 34.1215 31.07 34.0579 31.0954C33.9943 31.1209 33.9364 31.1587 33.8876 31.2067C33.8388 31.2547 33.8 31.312 33.7736 31.3752C33.7471 31.4383 33.7335 31.5061 33.7335 31.5746C33.7323 31.6447 33.745 31.7142 33.7707 31.7793C33.7965 31.8445 33.8348 31.9039 33.8835 31.9542C33.9322 32.0045 33.9904 32.0447 34.0546 32.0725C34.1189 32.1004 34.188 32.1153 34.258 32.1164H43.7777C43.9199 32.1141 44.0555 32.0561 44.1552 31.9547C44.255 31.8534 44.3109 31.7168 44.3109 31.5746C44.3097 31.5057 44.2951 31.4378 44.2677 31.3745C44.2403 31.3113 44.2007 31.2541 44.1512 31.2062C44.1017 31.1583 44.0432 31.1206 43.9791 31.0953C43.915 31.07 43.8466 31.0575 43.7777 31.0587Z" fill="white"/>
<path d="M28.4793 32.1336H31.0592C31.2013 32.1313 31.3369 32.0733 31.4367 31.9719C31.5364 31.8706 31.5923 31.734 31.5923 31.5918C31.5935 31.5215 31.5805 31.4516 31.5541 31.3864C31.5277 31.3212 31.4885 31.262 31.4387 31.2122C31.389 31.1625 31.3298 31.1233 31.2646 31.0969C31.1993 31.0705 31.1295 31.0575 31.0592 31.0587H28.4793C28.4108 31.0575 28.3428 31.07 28.2792 31.0954C28.2156 31.1209 28.1577 31.1587 28.1089 31.2067C28.0601 31.2547 28.0213 31.312 27.9948 31.3752C27.9683 31.4383 27.9547 31.5061 27.9547 31.5746C27.9513 31.6461 27.9622 31.7175 27.9869 31.7846C28.0116 31.8517 28.0495 31.9132 28.0985 31.9653C28.1474 32.0175 28.2064 32.0593 28.2718 32.0882C28.3372 32.1171 28.4078 32.1325 28.4793 32.1336V32.1336Z" fill="white"/>
<path d="M40.071 34.7744C40.0722 34.7048 40.0594 34.6356 40.0336 34.571C40.0077 34.5064 39.9693 34.4475 39.9205 34.3979C39.8716 34.3483 39.8134 34.3088 39.7492 34.2819C39.685 34.255 39.6161 34.2412 39.5465 34.2412H36.915C36.7736 34.2412 36.638 34.2974 36.538 34.3974C36.438 34.4974 36.3818 34.633 36.3818 34.7744C36.3818 34.9158 36.438 35.0514 36.538 35.1514C36.638 35.2514 36.7736 35.3075 36.915 35.3075H39.5465C39.6161 35.3076 39.685 35.2937 39.7492 35.2668C39.8134 35.2399 39.8716 35.2005 39.9205 35.1509C39.9693 35.1013 40.0077 35.0424 40.0336 34.9778C40.0594 34.9131 40.0722 34.844 40.071 34.7744V34.7744Z" fill="white"/>
<path d="M28.479 35.3075H34.3094C34.4508 35.3075 34.5865 35.2514 34.6864 35.1514C34.7864 35.0514 34.8426 34.9158 34.8426 34.7744C34.8426 34.633 34.7864 34.4974 34.6864 34.3974C34.5865 34.2974 34.4508 34.2412 34.3094 34.2412H28.479C28.3376 34.2412 28.202 34.2974 28.102 34.3974C28.002 34.4974 27.9458 34.633 27.9458 34.7744C27.9458 34.9158 28.002 35.0514 28.102 35.1514C28.202 35.2514 28.3376 35.3075 28.479 35.3075V35.3075Z" fill="white"/>
<path d="M35.3585 39.9851C35.3585 40.1251 35.4135 40.2594 35.5116 40.3591C35.6097 40.4589 35.7432 40.516 35.8831 40.5183H43.8118C43.9427 40.5017 44.063 40.438 44.1502 40.339C44.2374 40.2401 44.2855 40.1127 44.2855 39.9808C44.2855 39.8489 44.2374 39.7216 44.1502 39.6226C44.063 39.5237 43.9427 39.4599 43.8118 39.4434H35.8487C35.7133 39.4543 35.5873 39.5164 35.4962 39.6171C35.4051 39.7178 35.3559 39.8494 35.3585 39.9851V39.9851Z" fill="white"/>
<path d="M28.479 40.5187H32.7014C32.7777 40.5284 32.8551 40.5217 32.9286 40.4991C33.0021 40.4765 33.07 40.4385 33.1277 40.3877C33.1854 40.3368 33.2316 40.2743 33.2632 40.2042C33.2949 40.1341 33.3113 40.0581 33.3113 39.9812C33.3113 39.9043 33.2949 39.8283 33.2632 39.7582C33.2316 39.6881 33.1854 39.6256 33.1277 39.5748C33.07 39.5239 33.0021 39.4859 32.9286 39.4634C32.8551 39.4408 32.7777 39.4341 32.7014 39.4438H28.479C28.3482 39.4603 28.2279 39.5241 28.1407 39.623C28.0535 39.722 28.0054 39.8493 28.0054 39.9812C28.0054 40.1131 28.0535 40.2405 28.1407 40.3394C28.2279 40.4384 28.3482 40.5021 28.479 40.5187V40.5187Z" fill="white"/>
<path d="M28.4792 43.6741H37.4312C37.5704 43.6741 37.7038 43.6189 37.8022 43.5205C37.9006 43.4221 37.9558 43.2887 37.9558 43.1496C37.9558 43.0104 37.9006 42.877 37.8022 42.7786C37.7038 42.6803 37.5704 42.625 37.4312 42.625H28.4792C28.34 42.625 28.2066 42.6803 28.1082 42.7786C28.0099 42.877 27.9546 43.0104 27.9546 43.1496C27.9546 43.2887 28.0099 43.4221 28.1082 43.5205C28.2066 43.6189 28.34 43.6741 28.4792 43.6741Z" fill="white"/>
<path d="M17.4544 38.7985L19.3119 42.9864C19.3546 43.0808 19.4235 43.1609 19.5104 43.2173C19.5973 43.2737 19.6985 43.304 19.8021 43.3046V43.3046C19.9093 43.2988 20.0121 43.2602 20.0967 43.1941C20.1813 43.1279 20.2435 43.0375 20.275 42.9348L22.5367 36.3476H24.6522C24.8622 36.3465 25.07 36.304 25.2636 36.2226C25.4573 36.1411 25.633 36.0224 25.7807 35.873C25.9284 35.7237 26.0453 35.5468 26.1246 35.3523C26.204 35.1578 26.2442 34.9495 26.2431 34.7395V31.5921C26.2386 31.1723 26.0693 30.7712 25.7716 30.4752C25.474 30.1792 25.072 30.012 24.6522 30.0098H21.5048C21.0858 30.012 20.6847 30.1795 20.3884 30.4757C20.0922 30.772 19.9247 31.1731 19.9225 31.5921V33.7162L13.318 35.9864C13.2214 36.0257 13.1387 36.093 13.0805 36.1795C13.0223 36.2661 12.9912 36.368 12.9912 36.4723C12.9912 36.5766 13.0223 36.6785 13.0805 36.7651C13.1387 36.8516 13.2214 36.9189 13.318 36.9582L17.4544 38.7985ZM20.9802 31.5749C20.9802 31.5064 20.9938 31.4386 21.0203 31.3754C21.0467 31.3122 21.0855 31.255 21.1344 31.207C21.1832 31.1589 21.2411 31.1211 21.3047 31.0957C21.3683 31.0703 21.4363 31.0578 21.5048 31.0589H24.678C24.7465 31.0578 24.8145 31.0703 24.8781 31.0957C24.9417 31.1211 24.9996 31.1589 25.0484 31.207C25.0972 31.255 25.136 31.3122 25.1625 31.3754C25.1889 31.4386 25.2026 31.5064 25.2026 31.5749V34.7567C25.2049 34.8989 25.1512 35.0364 25.053 35.1394C24.9549 35.2423 24.8202 35.3026 24.678 35.3071H22.9581L23.6288 33.355C23.658 33.2594 23.6607 33.1577 23.6364 33.0607C23.6122 32.9637 23.562 32.8752 23.4913 32.8046C23.4212 32.7359 23.3334 32.6882 23.2376 32.6669C23.1418 32.6456 23.042 32.6516 22.9495 32.6842L21.006 33.355L20.9802 31.5749ZM22.2357 34.0171L19.7333 41.3783L18.3488 38.2051C18.2858 38.0876 18.1861 37.994 18.065 37.9385L14.9347 36.554L22.2357 34.0171Z" fill="white"/>
</g>
</g>
<defs>
<linearGradient id="paint0_linear_4844_16573" x1="8" y1="30" x2="77" y2="55" gradientUnits="userSpaceOnUse">
<stop stop-color="#F31717"/>
<stop offset="1" stop-color="#F31717" stop-opacity="0"/>
<stop offset="1" stop-color="#CC1C1C"/>
</linearGradient>
<clipPath id="clip0_4844_16573">
<rect width="60" height="60" fill="white"/>
</clipPath>
<clipPath id="clip1_4844_16573">
<rect width="35" height="34.914" fill="white" transform="translate(13 13)"/>
</clipPath>
</defs>
</svg>
