<svg width="60" height="60" viewBox="0 0 60 60" fill="none" xmlns="http://www.w3.org/2000/svg">
<g clip-path="url(#clip0_4845_16634)">
<circle cx="30" cy="30" r="30" fill="url(#paint0_linear_4845_16634)"/>
<path d="M30 30.0003V45.0003M30 30.0003L25.8334 33.3336M30 30.0003L34.1667 33.3336M18.39 25.1953C16.8137 25.592 15.4365 26.5506 14.5171 27.891C13.5977 29.2315 13.1995 30.8616 13.3972 32.475C13.5949 34.0883 14.375 35.574 15.5908 36.6528C16.8066 37.7316 18.3746 38.3293 20 38.3336H21.6667" stroke="white" stroke-width="3" stroke-linecap="round" stroke-linejoin="round"/>
<path d="M36.3834 21.8968C35.8138 19.6411 34.4077 17.6864 32.4503 16.4289C30.4929 15.1715 28.1306 14.7053 25.8422 15.125C23.5538 15.5447 21.5107 16.8188 20.1269 18.6891C18.7431 20.5593 18.1222 22.8858 18.3901 25.1968C18.3901 25.1968 18.6451 26.6668 19.1668 27.5002" stroke="white" stroke-width="3" stroke-linecap="round" stroke-linejoin="round"/>
<path d="M38.3337 38.3337C39.5104 38.3329 40.6736 38.0828 41.7468 37.6001C42.8199 37.1173 43.7786 36.4128 44.5599 35.5328C45.3411 34.6528 45.9271 33.6173 46.2793 32.4945C46.6315 31.3718 46.7419 30.1871 46.6033 29.0186C46.4647 27.85 46.0801 26.7241 45.475 25.7149C44.8698 24.7057 44.0578 23.8361 43.0924 23.1633C42.1269 22.4905 41.03 22.0299 39.8737 21.8116C38.7173 21.5933 37.5279 21.6224 36.3837 21.897L34.167 22.5003" stroke="white" stroke-width="3" stroke-linecap="round" stroke-linejoin="round"/>
</g>
<defs>
<linearGradient id="paint0_linear_4845_16634" x1="17.5" y1="33.5" x2="53" y2="51" gradientUnits="userSpaceOnUse">
<stop stop-color="#FFBA0D"/>
<stop offset="1" stop-color="#FDE097"/>
</linearGradient>
<clipPath id="clip0_4845_16634">
<rect width="60" height="60" fill="white"/>
</clipPath>
</defs>
</svg>
