<svg width="60" height="60" viewBox="0 0 60 60" fill="none" xmlns="http://www.w3.org/2000/svg">
<g clip-path="url(#clip0_4845_16638)">
<circle cx="30" cy="30" r="30" fill="url(#paint0_linear_4845_16638)"/>
<path d="M30.0003 43.3337C29.5281 43.3337 29.1325 43.1737 28.8137 42.8537C28.4937 42.5348 28.3337 42.1392 28.3337 41.667V29.7503L25.2087 32.8753C24.9031 33.1809 24.507 33.327 24.0203 33.3137C23.5348 33.2992 23.1392 33.1392 22.8337 32.8337C22.5281 32.5281 22.3753 32.1392 22.3753 31.667C22.3753 31.1948 22.5281 30.8059 22.8337 30.5003L28.8337 24.5003C29.0003 24.3337 29.1809 24.2153 29.3753 24.1453C29.5698 24.0764 29.7781 24.042 30.0003 24.042C30.2225 24.042 30.4309 24.0764 30.6253 24.1453C30.8198 24.2153 31.0003 24.3337 31.167 24.5003L37.167 30.5003C37.4725 30.8059 37.6253 31.1948 37.6253 31.667C37.6253 32.1392 37.4725 32.5281 37.167 32.8337C36.8614 33.1392 36.4659 33.2992 35.9803 33.3137C35.4937 33.327 35.0975 33.1809 34.792 32.8753L31.667 29.7503V41.667C31.667 42.1392 31.5075 42.5348 31.1887 42.8537C30.8687 43.1737 30.4725 43.3337 30.0003 43.3337ZM18.3337 25.0003C17.8614 25.0003 17.4653 24.8403 17.1453 24.5203C16.8264 24.2014 16.667 23.8059 16.667 23.3337V20.0003C16.667 19.0837 16.9937 18.2992 17.647 17.647C18.2992 16.9937 19.0837 16.667 20.0003 16.667H40.0003C40.917 16.667 41.702 16.9937 42.3553 17.647C43.0075 18.2992 43.3337 19.0837 43.3337 20.0003V23.3337C43.3337 23.8059 43.1737 24.2014 42.8537 24.5203C42.5348 24.8403 42.1392 25.0003 41.667 25.0003C41.1948 25.0003 40.7992 24.8403 40.4803 24.5203C40.1603 24.2014 40.0003 23.8059 40.0003 23.3337V20.0003H20.0003V23.3337C20.0003 23.8059 19.8409 24.2014 19.522 24.5203C19.202 24.8403 18.8059 25.0003 18.3337 25.0003Z" fill="white"/>
</g>
<defs>
<linearGradient id="paint0_linear_4845_16638" x1="27" y1="14" x2="41.5" y2="30" gradientUnits="userSpaceOnUse">
<stop stop-color="#711588"/>
<stop offset="1" stop-color="#6A3CA4"/>
</linearGradient>
<clipPath id="clip0_4845_16638">
<rect width="60" height="60" fill="white"/>
</clipPath>
</defs>
</svg>
