<svg width="60" height="60" viewBox="0 0 60 60" fill="none" xmlns="http://www.w3.org/2000/svg">
<g clip-path="url(#clip0_4844_16575)">
<circle cx="30" cy="30" r="30" fill="url(#paint0_linear_4844_16575)"/>
<g clip-path="url(#clip1_4844_16575)">
<path d="M42.5314 32.7812H41.4375C41.1355 32.7812 40.8906 33.0261 40.8906 33.3281C40.8906 33.6301 41.1355 33.875 41.4375 33.875H42.5314C42.8334 33.875 43.0783 33.6301 43.0783 33.3281C43.0783 33.0261 42.8334 32.7812 42.5314 32.7812Z" fill="white"/>
<path d="M35.9687 38.25H25.0312C24.1267 38.25 23.3906 38.986 23.3906 39.8906C23.3906 40.7952 24.1267 41.5312 25.0312 41.5312H35.9687C36.8733 41.5312 37.6094 40.7952 37.6094 39.8906C37.6094 38.986 36.8733 38.25 35.9687 38.25ZM35.9687 40.4375H25.0312C24.7297 40.4375 24.4844 40.1922 24.4844 39.8906C24.4844 39.5891 24.7297 39.3437 25.0312 39.3437H35.9687C36.2703 39.3437 36.5156 39.5891 36.5156 39.8906C36.5156 40.1922 36.2703 40.4375 35.9687 40.4375Z" fill="white"/>
<path d="M19.0156 29.5C19.3176 29.5 19.5625 29.2551 19.5625 28.9531V19.6562H41.4375V28.9531C41.4375 29.2551 41.6824 29.5 41.9844 29.5C42.2864 29.5 42.5312 29.2551 42.5312 28.9531V19.6562C42.5312 19.0532 42.0406 18.5625 41.4375 18.5625V17.4688C41.4375 16.8657 40.9468 16.375 40.3438 16.375V15.2812C40.3438 14.6782 39.8531 14.1875 39.25 14.1875V13.0938C39.25 12.4907 38.7593 12 38.1562 12H22.8438C22.2407 12 21.75 12.4907 21.75 13.0938V14.1875C21.1469 14.1875 20.6562 14.6782 20.6562 15.2812V16.375C20.0532 16.375 19.5625 16.8657 19.5625 17.4688V18.5625C18.9594 18.5625 18.4688 19.0532 18.4688 19.6562V28.9531C18.4688 29.2551 18.7136 29.5 19.0156 29.5ZM22.8438 13.0938H38.1562V14.1875H22.8438V13.0938ZM21.75 15.2812H39.25V16.375H21.75V15.2812ZM20.6562 17.4688H40.3438V18.5625H20.6562V17.4688Z" fill="white"/>
<path d="M47.9925 32.08C47.9803 31.9494 47.9526 31.8234 47.9114 31.7035L45.8029 22.117C45.669 21.3238 44.9916 20.75 44.1853 20.75H44.1719C43.8699 20.75 43.625 20.9949 43.625 21.2969C43.625 21.5989 43.8699 21.8437 44.1719 21.8437H44.1853C44.456 21.8437 44.6832 22.0379 44.7254 22.3053C44.7272 22.3161 44.7291 22.3268 44.7315 22.3375L46.5498 30.6052C46.4873 30.5979 46.4238 30.5937 46.3594 30.5937H14.6406C14.5762 30.5937 14.5127 30.5979 14.4501 30.6052L16.2685 22.3375C16.2708 22.3268 16.2728 22.3161 16.2745 22.3053C16.3168 22.0379 16.544 21.8437 16.8147 21.8437H16.8281C17.1301 21.8437 17.375 21.5989 17.375 21.2969C17.375 20.9949 17.1301 20.75 16.8281 20.75H16.8147C16.0084 20.75 15.3309 21.3238 15.1971 22.117L13.0887 31.7035C13.0475 31.8234 13.0198 31.9494 13.0075 32.08C13.0015 32.1175 12.9995 32.1547 13.0011 32.1914C13.0007 32.2057 13 32.22 13 32.2344V34.4219V45.3594C13 46.264 13.736 47 14.6406 47H46.3594C47.264 47 48 46.264 48 45.3594V34.4219V32.2344C48 32.22 47.9993 32.2057 47.9989 32.1914C48.0006 32.1547 47.9985 32.1175 47.9925 32.08ZM46.9062 45.3594C46.9062 45.6609 46.6609 45.9062 46.3594 45.9062H14.6406C14.3391 45.9062 14.0937 45.6609 14.0937 45.3594V34.4219C14.0937 34.1203 14.3391 33.875 14.6406 33.875H39.2499C39.5519 33.875 39.7968 33.6301 39.7968 33.3281C39.7968 33.0261 39.5519 32.7812 39.2499 32.7812H14.6406C14.4489 32.7812 14.2649 32.8146 14.0937 32.8753V32.2344C14.0937 32.2305 14.0942 32.2267 14.0944 32.2228L14.1401 32.0149C14.2249 31.8224 14.4172 31.6875 14.6407 31.6875H46.3594C46.5829 31.6875 46.7753 31.8224 46.86 32.0149L46.9058 32.2228C46.9058 32.2267 46.9064 32.2305 46.9064 32.2344V32.8753C46.7352 32.8146 46.5512 32.7812 46.3595 32.7812H44.7189C44.4169 32.7812 44.172 33.0261 44.172 33.3281C44.172 33.6301 44.4169 33.875 44.7189 33.875H46.3595C46.661 33.875 46.9064 34.1203 46.9064 34.4219L46.9062 45.3594Z" fill="white"/>
<path d="M28.8594 25.125C29.1614 25.125 29.4062 24.8801 29.4062 24.5781C29.4062 24.2761 29.1614 24.0312 28.8594 24.0312H24.4844C24.1824 24.0312 23.9375 24.2761 23.9375 24.5781C23.9375 24.8801 24.1824 25.125 24.4844 25.125H28.8594Z" fill="white"/>
<path d="M32.6875 22.3906C32.6875 22.0886 32.4426 21.8438 32.1406 21.8438H24.4844C24.1824 21.8438 23.9375 22.0886 23.9375 22.3906C23.9375 22.6926 24.1824 22.9375 24.4844 22.9375H32.1406C32.4426 22.9375 32.6875 22.6926 32.6875 22.3906Z" fill="white"/>
<path d="M21.75 22.9375H22.2969C22.5989 22.9375 22.8438 22.6926 22.8438 22.3906C22.8438 22.0886 22.5989 21.8438 22.2969 21.8438H21.75C21.448 21.8438 21.2031 22.0886 21.2031 22.3906C21.2031 22.6926 21.448 22.9375 21.75 22.9375Z" fill="white"/>
<path d="M21.75 25.125H22.2969C22.5989 25.125 22.8438 24.8801 22.8438 24.5781C22.8438 24.2761 22.5989 24.0312 22.2969 24.0312H21.75C21.448 24.0312 21.2031 24.2761 21.2031 24.5781C21.2031 24.8801 21.448 25.125 21.75 25.125Z" fill="white"/>
<path d="M21.75 28.4062C21.448 28.4062 21.2031 28.6511 21.2031 28.9531C21.2031 29.2551 21.448 29.5 21.75 29.5H26.6719C26.9739 29.5 27.2188 29.2551 27.2188 28.9531C27.2188 28.6511 26.9739 28.4062 26.6719 28.4062H21.75Z" fill="white"/>
<path d="M31.0469 26.7656C31.0469 26.4636 30.802 26.2188 30.5 26.2188H21.75C21.448 26.2188 21.2031 26.4636 21.2031 26.7656C21.2031 27.0676 21.448 27.3125 21.75 27.3125H30.5C30.802 27.3125 31.0469 27.0676 31.0469 26.7656Z" fill="white"/>
<path d="M39.25 26.2188H36.5156C36.2136 26.2188 35.9688 26.4636 35.9688 26.7656C35.9688 27.0676 36.2136 27.3125 36.5156 27.3125H39.25C39.552 27.3125 39.7969 27.0676 39.7969 26.7656C39.7969 26.4636 39.552 26.2188 39.25 26.2188Z" fill="white"/>
<path d="M32.6875 29.5H39.25C39.552 29.5 39.7969 29.2551 39.7969 28.9531C39.7969 28.6511 39.552 28.4062 39.25 28.4062H32.6875C32.3855 28.4062 32.1406 28.6511 32.1406 28.9531C32.1406 29.2551 32.3855 29.5 32.6875 29.5Z" fill="white"/>
</g>
</g>
<defs>
<linearGradient id="paint0_linear_4844_16575" x1="4" y1="28" x2="56" y2="40.5" gradientUnits="userSpaceOnUse">
<stop stop-color="#FFBD16"/>
<stop offset="1" stop-color="#FAD57B"/>
</linearGradient>
<clipPath id="clip0_4844_16575">
<rect width="60" height="60" fill="white"/>
</clipPath>
<clipPath id="clip1_4844_16575">
<rect width="35" height="35" fill="white" transform="translate(13 12)"/>
</clipPath>
</defs>
</svg>
