<svg width="60" height="60" viewBox="0 0 60 60" fill="none" xmlns="http://www.w3.org/2000/svg">
<g clip-path="url(#clip0_4845_16632)">
<circle cx="30" cy="30" r="30" fill="url(#paint0_linear_4845_16632)"/>
<path d="M33.5166 22.8171H19.5166C18.7833 22.8171 18.1833 22.2171 18.1833 21.4837C18.1833 20.7504 18.7833 20.1504 19.5166 20.1504H33.5166C34.2499 20.1504 34.8499 20.7504 34.8499 21.4837C34.8499 22.2171 34.2499 22.8171 33.5166 22.8171ZM25.3499 30.1504H19.3499C18.6166 30.1504 18.0166 29.5504 18.0166 28.8171C18.0166 28.0837 18.6166 27.4837 19.3499 27.4837H25.3499C26.0833 27.4837 26.6833 28.0837 26.6833 28.8171C26.6833 29.5504 26.0833 30.1504 25.3499 30.1504ZM22.6833 37.4837H19.3499C18.6166 37.4837 18.0166 36.8837 18.0166 36.1504C18.0166 35.4171 18.6166 34.8171 19.3499 34.8171H22.6833C23.4166 34.8171 24.0166 35.4171 24.0166 36.1504C24.0166 36.8837 23.4166 37.4837 22.6833 37.4837ZM36.6666 26.6671C31.1499 26.6671 26.6666 31.1504 26.6666 36.6671C26.6666 42.1837 31.1499 46.6671 36.6666 46.6671C42.1833 46.6671 46.6666 42.1837 46.6666 36.6671C46.6666 31.1504 42.1833 26.6671 36.6666 26.6671V26.6671ZM36.6666 44.0004C32.6166 44.0004 29.3333 40.7171 29.3333 36.6671C29.3333 32.6171 32.6166 29.3337 36.6666 29.3337C40.7166 29.3337 43.9999 32.6171 43.9999 36.6671C43.9999 40.7171 40.7166 44.0004 36.6666 44.0004Z" fill="white"/>
<path d="M36.6667 39.9665C36.15 40.4831 35.3 40.4831 34.7833 39.9665L31.95 37.1331C31.4333 36.6165 31.4333 35.7665 31.95 35.2498C32.4667 34.7331 33.3167 34.7331 33.8333 35.2498L36.6667 38.0831C37.1833 38.5998 37.1833 39.4498 36.6667 39.9665Z" fill="white"/>
<path d="M41.383 35.2503L36.6663 39.967C36.1497 40.4837 35.2997 40.4837 34.783 39.967C34.2663 39.4503 34.2663 38.6003 34.783 38.0837L39.4997 33.367C40.0163 32.8503 40.8663 32.8503 41.383 33.367C41.8997 33.8837 41.8997 34.7337 41.383 35.2503Z" fill="white"/>
<path d="M24.0003 41.4834H16.1003V16.1501H36.7669V24.0001C36.7669 24.7334 37.3669 25.3334 38.1003 25.3334C38.8336 25.3334 39.4336 24.7334 39.4336 24.0001V15.4834C39.4336 14.3834 38.5336 13.4834 37.4336 13.4834H15.4336C14.3336 13.4834 13.4336 14.3834 13.4336 15.4834V42.1501C13.4336 43.2501 14.3336 44.1501 15.4336 44.1501H24.0003C24.7336 44.1501 25.3336 43.5501 25.3336 42.8167C25.3336 42.0667 24.7336 41.4834 24.0003 41.4834Z" fill="white"/>
</g>
<defs>
<linearGradient id="paint0_linear_4845_16632" x1="13" y1="32" x2="45.5" y2="49.5" gradientUnits="userSpaceOnUse">
<stop stop-color="#FF8702"/>
<stop offset="1" stop-color="#F7A454"/>
</linearGradient>
<clipPath id="clip0_4845_16632">
<rect width="60" height="60" fill="white"/>
</clipPath>
</defs>
</svg>
