<svg width="60" height="60" viewBox="0 0 60 60" fill="none" xmlns="http://www.w3.org/2000/svg">
<g clip-path="url(#clip0_4829_16427)">
<circle cx="30" cy="30" r="30" fill="#BCA7FF"/>
<path d="M23 12L35 11.5L60 28.5C59.944 35.4644 59.1189 39.1255 56 45C51.4322 51.4312 48.4028 54.55 41 58L24.5 49.5L15 40.5L11.5 32.5L13 26.5L15 18.5L23 12Z" fill="#9684CF"/>
<path fill-rule="evenodd" clip-rule="evenodd" d="M30.5 7L35.4512 11.0247L41.75 10.0139L44.0242 15.9758L49.9861 18.25L48.9753 24.5488L53 29.5L48.9753 34.4512L49.9861 40.75L44.0242 43.0242L41.75 48.9861L35.4512 47.9753L30.5 52L25.5488 47.9753L19.25 48.9861L16.9758 43.0242L11.0139 40.75L12.0247 34.4512L8 29.5L12.0247 24.5488L11.0139 18.25L16.9758 15.9758L19.25 10.0139L25.5488 11.0247L30.5 7ZM30.5 15.7964C38.0696 15.7964 44.2036 21.9341 44.2036 29.5C44.2036 37.0696 38.0659 43.2036 30.5 43.2036C22.9304 43.2036 16.7964 37.0659 16.7964 29.5C16.7964 21.9304 22.9304 15.7964 30.5 15.7964Z" fill="white"/>
<path fill-rule="evenodd" clip-rule="evenodd" d="M48.9827 24.5049L48.9753 24.5488L53 29.5L48.9753 34.4512L49.9861 40.75L44.0242 43.0242L41.75 48.9861L35.4512 47.9753L30.5 52L25.5488 47.9753L19.25 48.9861L16.9758 43.0242L16.6609 42.9033L21.7219 40.0212C24.0986 42.0061 27.1602 43.2036 30.5 43.2036C38.0659 43.2036 44.2036 37.0696 44.2036 29.5C44.2036 28.7603 44.145 28.0315 44.0315 27.3247L48.9827 24.5049Z" fill="white"/>
<g clip-path="url(#clip1_4829_16427)">
<path d="M25.3109 34.1154C25.3109 33.9591 25.2538 33.8239 25.1396 33.7097C25.0254 33.5956 24.8902 33.5385 24.7339 33.5385C24.5777 33.5385 24.4425 33.5956 24.3283 33.7097C24.2141 33.8239 24.157 33.9591 24.157 34.1154C24.157 34.2716 24.2141 34.4069 24.3283 34.521C24.4425 34.6352 24.5777 34.6923 24.7339 34.6923C24.8902 34.6923 25.0254 34.6352 25.1396 34.521C25.2538 34.4069 25.3109 34.2716 25.3109 34.1154ZM35.6955 28.9231C35.6955 28.6166 35.5783 28.3477 35.3439 28.1163C35.1095 27.8849 34.8421 27.7692 34.5416 27.7692H31.3686C31.3686 27.4207 31.5128 26.9414 31.8013 26.3314C32.0897 25.7215 32.2339 25.2392 32.2339 24.8846C32.2339 24.2957 32.1378 23.86 31.9455 23.5775C31.7532 23.2951 31.3686 23.1538 30.7916 23.1538C30.6354 23.3101 30.5212 23.5655 30.4491 23.9201C30.377 24.2746 30.2853 24.6517 30.1741 25.0514C30.063 25.451 29.8842 25.78 29.6378 26.0385C29.5056 26.1767 29.2742 26.4501 28.9437 26.8588C28.9196 26.8888 28.8505 26.979 28.7363 27.1292C28.6222 27.2794 28.5275 27.4026 28.4524 27.4988C28.3773 27.595 28.2736 27.7227 28.1414 27.8819C28.0092 28.0412 27.889 28.1734 27.7808 28.2785C27.6726 28.3837 27.557 28.4904 27.4338 28.5986C27.3106 28.7067 27.1904 28.7879 27.0732 28.8419C26.956 28.896 26.8493 28.9231 26.7532 28.9231H26.4647V34.6923H26.7532C26.8313 34.6923 26.926 34.7013 27.0371 34.7194C27.1483 34.7374 27.2475 34.7569 27.3346 34.7779C27.4217 34.799 27.5359 34.832 27.6772 34.8771C27.8184 34.9222 27.9235 34.9567 27.9927 34.9808C28.0618 35.0048 28.1684 35.0424 28.3127 35.0934C28.4569 35.1445 28.544 35.1761 28.5741 35.1881C29.8421 35.6268 30.8698 35.8462 31.657 35.8462H32.7478C33.9016 35.8462 34.4785 35.3444 34.4785 34.3407C34.4785 34.1845 34.4635 34.0162 34.4335 33.8359C34.6138 33.7398 34.7565 33.582 34.8616 33.3627C34.9668 33.1433 35.0194 32.9225 35.0194 32.7001C35.0194 32.4778 34.9653 32.2704 34.8571 32.0781C35.1756 31.7776 35.3349 31.4201 35.3349 31.0054C35.3349 30.8552 35.3049 30.6884 35.2448 30.5051C35.1847 30.3218 35.1095 30.1791 35.0194 30.0769C35.2117 30.0709 35.3725 29.9297 35.5017 29.6532C35.6309 29.3768 35.6955 29.1334 35.6955 28.9231ZM36.8493 28.9141C36.8493 29.4489 36.7021 29.9387 36.4076 30.3834C36.4617 30.5817 36.4888 30.7891 36.4888 31.0054C36.4888 31.4681 36.3746 31.9008 36.1462 32.3035C36.1642 32.4297 36.1732 32.5589 36.1732 32.6911C36.1732 33.2981 35.993 33.8329 35.6324 34.2957C35.6384 35.131 35.383 35.7906 34.8662 36.2743C34.3493 36.7581 33.6672 37 32.8199 37H31.657C31.0801 37 30.5107 36.9324 29.9488 36.7972C29.3869 36.662 28.7363 36.4651 27.9972 36.2067C27.3 35.9663 26.8854 35.8462 26.7532 35.8462H24.157C23.8385 35.8462 23.5666 35.7335 23.3412 35.5081C23.1159 35.2828 23.0032 35.0108 23.0032 34.6923V28.9231C23.0032 28.6046 23.1159 28.3326 23.3412 28.1073C23.5666 27.8819 23.8385 27.7692 24.157 27.7692H26.627C26.8433 27.625 27.255 27.1593 27.8619 26.372C28.2105 25.9213 28.532 25.5367 28.8265 25.2181C28.9707 25.0679 29.0774 24.811 29.1465 24.4474C29.2156 24.0838 29.3073 23.7037 29.4214 23.3071C29.5356 22.9105 29.7219 22.5859 29.9803 22.3335C30.2147 22.1112 30.4851 22 30.7916 22C31.2964 22 31.7502 22.0977 32.1528 22.293C32.5555 22.4883 32.8619 22.7933 33.0723 23.2079C33.2826 23.6226 33.3878 24.1815 33.3878 24.8846C33.3878 25.4435 33.2436 26.0204 32.9551 26.6154H34.5416C35.1666 26.6154 35.7075 26.8437 36.1642 27.3005C36.621 27.7572 36.8493 28.2951 36.8493 28.9141Z" fill="white"/>
</g>
</g>
<defs>
<clipPath id="clip0_4829_16427">
<rect width="60" height="60" fill="white"/>
</clipPath>
<clipPath id="clip1_4829_16427">
<rect width="13.8525" height="15" fill="white" transform="translate(23 22)"/>
</clipPath>
</defs>
</svg>
