<svg width="60" height="60" viewBox="0 0 60 60" fill="none" xmlns="http://www.w3.org/2000/svg">
<g clip-path="url(#clip0_4771_16409)">
<circle cx="30" cy="30" r="30" fill="#F0AE00"/>
<path d="M32.914 7.72011L57.7065 18.4729C60.6689 27.581 61.075 31.8916 57.7065 41.4729C54.338 51.0542 42.9368 57.0652 43.2016 56.4729L24.7017 51.4727L13.7016 43.9729L8.70163 34.4729L10.2016 19.9726L20.2065 10.2063L32.914 7.72011Z" fill="#BF8B00"/>
<g clip-path="url(#clip1_4771_16409)">
<path fill-rule="evenodd" clip-rule="evenodd" d="M29.6011 15C34.6914 18.2251 39.2886 19.7534 43.2363 19.3921C43.9248 33.3325 38.7783 41.5649 29.6548 45C20.8438 41.7847 15.6338 33.9062 16.0195 19.1797C20.6533 19.4238 25.1968 18.4204 29.6011 15Z" fill="white"/>
<path fill-rule="evenodd" clip-rule="evenodd" d="M29.6061 16.7207C34.1105 19.5771 38.1828 20.9272 41.674 20.6074C42.2844 32.9463 37.7263 40.2339 29.6525 43.2759C21.8547 40.4292 17.2429 33.4565 17.5847 20.4219C21.6862 20.6367 25.7097 19.7505 29.6061 16.7207Z" fill="#BF8B00"/>
<path fill-rule="evenodd" clip-rule="evenodd" d="M29.7306 19.7705C33.2023 21.9702 36.3371 23.0103 39.0275 22.7661C39.4963 32.2729 35.988 37.8857 29.7648 40.2295C29.7258 40.2148 29.6867 40.2002 29.6476 40.1855C29.6086 40.2002 29.5695 40.2148 29.5304 40.2295C23.3097 37.8857 19.799 32.2729 20.2677 22.7661C22.9582 23.0127 26.0954 21.9702 29.5646 19.7705L29.6452 19.8315L29.7306 19.7705Z" fill="white"/>
<path d="M24.6523 29.229L26.4761 29.2046L26.6128 29.2388C26.9814 29.4512 27.3281 29.6929 27.6528 29.9688C27.8872 30.1665 28.1094 30.3813 28.3218 30.6157C28.9761 29.5635 29.6743 28.5942 30.4116 27.7056C31.2197 26.7314 31.7251 26.1968 32.6235 25.3887L32.8018 25.3203H34.7939L34.3911 25.7646C33.1582 27.1343 32.3867 28.2036 31.376 29.6636C30.3628 31.1284 29.4595 32.6372 28.6538 34.1899L28.4023 34.6733L28.1729 34.1802C27.748 33.2695 27.2402 32.4346 26.6348 31.6875C26.0293 30.9404 25.3237 30.2764 24.501 29.7124L24.6523 29.229Z" fill="#BF8B00"/>
</g>
<circle cx="30.5" cy="29.5" r="21" stroke="white" stroke-width="3"/>
</g>
<defs>
<clipPath id="clip0_4771_16409">
<rect width="60" height="60" fill="white"/>
</clipPath>
<clipPath id="clip1_4771_16409">
<rect width="27.2974" height="30" fill="white" transform="translate(16 15)"/>
</clipPath>
</defs>
</svg>
