<svg width="60" height="60" viewBox="0 0 60 60" fill="none" xmlns="http://www.w3.org/2000/svg">
<g clip-path="url(#clip0_4829_16426)">
<circle cx="30" cy="30" r="30" fill="#FDA3B2"/>
<path d="M20.7451 14.5L28.405 12L32.4902 14L59.0444 22.5C60.8561 32.2707 60.0462 36.6604 57.0017 43.5C53.4187 50.5138 50.0098 53.6341 41.682 58L21.2558 48.5L11 32.5L9 18L20.7451 14.5Z" fill="#E891A0"/>
<path fill-rule="evenodd" clip-rule="evenodd" d="M27.2995 9C29.3604 10.3212 31.5107 11.4975 33.7348 12.5203C33.1188 13.2928 32.6037 14.1406 32.2021 15.0434C30.5187 14.2193 28.8831 13.301 27.303 12.2929C22.5124 16.0162 17.0009 17.8674 10.9856 17.5419C10.5307 34.8707 17.0009 44.4869 27.366 48.2592C34.7811 45.4597 40.1246 39.8188 42.4517 31.1894H42.7177C43.6025 31.1901 44.4844 31.0879 45.3457 30.8849C42.7142 41.4005 36.4188 48.1402 27.366 51.5521C14.8733 46.9994 7.47922 35.8225 8.02862 14.9489C14.6004 15.2988 21.0497 13.8711 27.2995 9.0175V9Z" fill="white"/>
<path fill-rule="evenodd" clip-rule="evenodd" d="M22.1032 27.5779H22.6281V26.4196C22.6253 25.1326 23.1192 23.8941 24.0068 22.9622C24.4367 22.5026 24.9563 22.1362 25.5336 21.8856C26.1108 21.6351 26.7334 21.5059 27.3627 21.5059C27.992 21.5059 28.6146 21.6351 29.1918 21.8856C29.7691 22.1362 30.2888 22.5026 30.7186 22.9622C31.6148 23.8902 32.1166 25.1294 32.1183 26.4196V27.5779H32.6397C32.8448 27.5779 33.0415 27.6593 33.1866 27.8044C33.3316 27.9494 33.4131 28.1461 33.4131 28.3512V36.5222C33.4122 36.727 33.3304 36.9232 33.1856 37.068C33.0407 37.2129 32.8446 37.2946 32.6397 37.2955H22.1032C21.8984 37.2946 21.7022 37.2129 21.5574 37.068C21.4125 36.9232 21.3308 36.727 21.3298 36.5222V28.3512C21.3298 28.1461 21.4113 27.9494 21.5563 27.8044C21.7014 27.6593 21.8981 27.5779 22.1032 27.5779V27.5779ZM24.0908 27.5779H30.6381V26.4196C30.6438 25.5084 30.2964 24.6305 29.6688 23.97C29.3741 23.6537 29.0174 23.4014 28.621 23.229C28.2245 23.0565 27.7968 22.9675 27.3645 22.9675C26.9321 22.9675 26.5044 23.0565 26.108 23.229C25.7115 23.4014 25.3548 23.6537 25.0601 23.97C24.4325 24.6305 24.0851 25.5084 24.0908 26.4196V27.5779V27.5779ZM26.7293 32.7954L25.8965 34.9825H28.8324L28.0591 32.7639C28.3642 32.6062 28.6069 32.3498 28.7475 32.0364C28.8881 31.723 28.9183 31.3712 28.8333 31.0385C28.7482 30.7057 28.5528 30.4116 28.279 30.2042C28.0053 29.9967 27.6693 29.8882 27.3259 29.8964C26.9825 29.9045 26.6521 30.0288 26.3884 30.2489C26.1248 30.4691 25.9436 30.7721 25.8743 31.1085C25.8051 31.445 25.8519 31.7949 26.0072 32.1013C26.1625 32.4077 26.4171 32.6523 26.7293 32.7954V32.7954Z" fill="white"/>
<ellipse cx="42.5" cy="19.5" rx="6.5" ry="7.5" fill="#E891A0"/>
<path fill-rule="evenodd" clip-rule="evenodd" d="M42.7247 11.4219C44.3615 11.4219 45.9616 11.9073 47.3226 12.8166C48.6835 13.726 49.7443 15.0185 50.3707 16.5308C50.9971 18.043 51.161 19.707 50.8416 21.3124C50.5223 22.9178 49.7341 24.3924 48.5767 25.5498C47.4193 26.7072 45.9446 27.4954 44.3392 27.8148C42.7339 28.1341 41.0699 27.9702 39.5576 27.3438C38.0454 26.7174 36.7529 25.6567 35.8435 24.2957C34.9341 22.9347 34.4487 21.3347 34.4487 19.6978C34.4487 17.5029 35.3207 15.3979 36.8727 13.8458C38.4247 12.2938 40.5298 11.4219 42.7247 11.4219V11.4219ZM40.821 19.4984C41.0591 19.6978 41.2825 19.9142 41.4894 20.1458C42.1228 19.1301 42.8243 18.1586 43.589 17.2378C45.6886 14.7253 44.7263 15.2117 47.6133 15.2117L47.1934 15.6666C46.2159 16.7751 45.3278 17.9592 44.5374 19.2079C43.5361 20.6546 42.6279 22.1635 41.8184 23.7256L41.5699 24.2085L41.3389 23.7186C40.9314 22.828 40.4154 21.9912 39.8027 21.2271C39.2501 20.5299 38.5912 19.9241 37.8501 19.4319C38.2245 18.1966 40.0162 18.83 40.8175 19.5089L40.821 19.4984Z" fill="white"/>
</g>
<defs>
<clipPath id="clip0_4829_16426">
<rect width="60" height="60" fill="white"/>
</clipPath>
</defs>
</svg>
