<svg width="60" height="60" viewBox="0 0 60 60" fill="none" xmlns="http://www.w3.org/2000/svg">
<g clip-path="url(#clip0_4943_16432)">
<circle cx="30" cy="30" r="30" fill="#FFB200"/>
<path d="M30.5 14L41 18.5L60 29.5C59.8121 35.7747 59.0502 39.1964 56 45C50.5 53.5 43.5 57.5 40 58L18.5 45.5L30.5 39V14Z" fill="#FF9F00"/>
<path d="M20.8372 21.7723V25.6121H20.0998V21.556L15 18.8308L29.3471 14L44.5545 18.3661L36.8437 22.6396L37.0279 25.8295H23.5715L23.541 23.3833L20.8372 21.7723ZM20.1606 26.6093C20.4193 26.7266 20.1511 29.6026 20.1511 29.6026C20.2053 30.1664 19.6158 33.7479 19.6158 33.7479C20.5601 34.4524 21.1162 33.8621 21.1162 33.8621C21.6425 33.3426 21.3136 31.2732 21.3136 31.2732L20.8378 26.345L20.1695 26.4885L20.1606 26.6093ZM42.1114 42.2324C42.1114 39.6948 40.9591 37.6379 39.5383 37.6379H20.9191C19.498 37.6379 18.3461 39.6948 18.3461 42.2324V46H42.1112L42.1114 42.2324ZM23.5198 26.3445C23.124 27.2451 22.9029 28.2393 22.9029 29.2863C22.9029 33.3318 26.1832 36.6117 30.2284 36.6117C34.2736 36.6117 37.5545 33.332 37.5545 29.2863C37.5545 28.2393 37.3334 27.2451 36.9376 26.3445H23.5198Z" fill="#00ACC4"/>
<path d="M18 41.5C18 39.0147 20.0147 37 22.5 37H38.5C40.9853 37 43 39.0147 43 41.5V46H18V41.5Z" fill="#0197A5"/>
<rect x="22" y="22" width="8" height="4" fill="#CFE6DB"/>
<rect x="30" y="22" width="8" height="4" fill="#E4F0EA"/>
<rect x="28" y="22" width="4" height="4" fill="#757575"/>
</g>
<defs>
<clipPath id="clip0_4943_16432">
<rect width="60" height="60" fill="white"/>
</clipPath>
</defs>
</svg>
