<svg width="60" height="60" viewBox="0 0 60 60" fill="none" xmlns="http://www.w3.org/2000/svg">
<g clip-path="url(#clip0_4772_16424)">
<circle cx="30" cy="30" r="30" fill="#F9B6A6"/>
<path d="M23.0007 12.0002C27.7995 11.5865 40.4733 18.647 60.0002 29.0002C60.1172 36.1634 58.7267 39.944 55.0005 46.4996C51.624 51.4152 49.0401 53.7046 43.0005 56.9996L12.0005 29.9996C11.6546 20.2109 14.2944 16.3604 23.0007 12.0002Z" fill="#C18475"/>
<path d="M15.177 24.6884C15.6962 26.0676 16.5035 27.3202 17.5451 28.3627C21.6158 32.434 28.2176 32.434 32.2901 28.3609C34.0113 26.6448 35.0759 24.3793 35.2983 21.959C36.7083 25.6771 35.9233 30.0377 32.9295 33.0315C28.8576 37.1034 22.2558 37.1034 18.1839 33.0315C15.9001 30.7496 14.8995 27.6709 15.177 24.6884Z" fill="white"/>
<path d="M15.2394 35.7095C20.4913 40.9602 28.7669 41.3264 34.4481 36.822L35.6319 38.0045L34.6488 38.987L42.6763 47.0139C42.3775 47.4864 42.2481 47.8502 42.3975 47.9983L42.8369 48.437C43.5513 49.1527 49.1519 43.5502 48.4375 42.8358L47.9981 42.3977C47.85 42.2489 47.4869 42.377 47.0156 42.6758L38.9869 34.6489L38.0044 35.6314L36.8212 34.4483C41.325 28.7664 40.9594 20.4902 35.7094 15.2389C30.0569 9.58703 20.8919 9.58703 15.2394 15.2389C9.58625 20.8927 9.5875 30.057 15.2394 35.7095ZM16.945 16.9458C21.655 12.2352 29.2944 12.2352 34.0031 16.9458C38.7138 21.6552 38.7138 29.2945 34.0031 34.0039C29.2931 38.7152 21.6562 38.7139 16.945 34.0039C12.2363 29.2933 12.235 21.6564 16.945 16.9458Z" fill="white"/>
</g>
<defs>
<clipPath id="clip0_4772_16424">
<rect width="60" height="60" fill="white"/>
</clipPath>
</defs>
</svg>
