<svg width="60" height="60" viewBox="0 0 60 60" fill="none" xmlns="http://www.w3.org/2000/svg">
<g clip-path="url(#clip0_4941_16429)">
<circle cx="30" cy="30" r="30" fill="#FFB200"/>
<path d="M30.5 14L41 18.5L60 29.5C59.8121 35.7747 59 39 56 45C50.5 53.5 47 55 44 56.5L25 43.5L30.5 14Z" fill="#FF9F00"/>
<path d="M40.9137 18.518C37.2398 17.85 34.0369 16.47 31.3937 14.4171C31.0353 14.139 30.6062 14 30.177 14C26.8828 24.7865 26.8067 35.4556 30.177 46C30.4853 46 30.7935 45.9513 31.0876 45.8542C38.0508 43.541 42.55 38.0192 42.55 31.7863V20.4839C42.55 19.5175 41.8616 18.6905 40.9137 18.518Z" fill="#00ACC4"/>
<path d="M19.6363 18.518C23.3102 17.85 26.5131 16.47 29.1563 14.4171C29.5147 14.139 29.9438 14 30.373 14V46C30.0647 46 29.7564 45.9513 29.4624 45.8542C22.4992 43.541 18 38.0192 18 31.7863V20.4839C18.0004 19.5175 18.6884 18.6905 19.6363 18.518Z" fill="#0197A5"/>
<path d="M30.3723 22.0104C30.3065 22.0087 30.2422 22.0005 30.1757 22.0005C25.9606 22.0005 22.5312 25.4298 22.5312 29.6449C22.5312 33.86 25.9606 37.2894 30.1757 37.2894C30.2422 37.2894 30.3065 37.2812 30.3723 37.2794C31.0422 32.1644 31.0539 27.0743 30.3723 22.0104Z" fill="#CFE6DB"/>
<path d="M30.373 22.0104C30.4392 22.0087 30.5035 22.0005 30.5697 22.0005C34.7848 22.0005 38.2141 25.4298 38.2141 29.6449C38.2141 33.86 34.7848 37.2894 30.5697 37.2894C30.5032 37.2894 30.4388 37.2812 30.373 37.2794V22.0104Z" fill="#E4F0EA"/>
<path d="M30.3722 28.5404L29.5107 29.4019L28.3477 28.2389C27.9349 27.8268 27.264 27.8264 26.8515 28.2389L26.0515 29.0389C25.6391 29.4517 25.6391 30.123 26.0515 30.5354L28.7626 33.2462C28.9689 33.4524 29.2398 33.5555 29.5107 33.5555C29.7817 33.5555 30.0526 33.4524 30.2588 33.2462L30.3719 33.1331C31.0293 31.5612 31.0666 30.0284 30.3722 28.5404Z" fill="#757575"/>
<path d="M34.2998 27.7096L33.5002 26.9096C33.1002 26.5096 32.4029 26.5103 32.0036 26.9096L30.373 28.5402V33.1325L34.2998 29.2054C34.7122 28.7933 34.7122 28.122 34.2998 27.7096Z" fill="#757575"/>
</g>
<defs>
<clipPath id="clip0_4941_16429">
<rect width="60" height="60" fill="white"/>
</clipPath>
</defs>
</svg>
