<svg width="60" height="60" viewBox="0 0 60 60" fill="none" xmlns="http://www.w3.org/2000/svg">
<g clip-path="url(#clip0_4829_16425)">
<circle cx="30" cy="30" r="30" fill="#84F5FF"/>
<path d="M22.7176 10L36 8.5L60 28.5C59.944 35.4644 59.1189 39.1255 56 45C51.4321 51.4312 48.4028 54.55 41 58L24.5 49.5L13 42.5L9 32.5L9.62353 25L13.9882 18L22.7176 10Z" fill="#5ED4DE"/>
<path d="M30.5 7C18.0736 7 8 17.0736 8 29.5C8 41.9264 18.0736 52 30.5 52C42.9264 52 53 41.9264 53 29.5C53 17.0736 42.9264 7 30.5 7ZM30.5 10.0063C41.2664 10.0063 49.9937 18.7335 49.9937 29.5C49.9937 40.2664 41.2665 48.9952 30.5 48.9952C19.7335 48.9952 11.0048 40.2665 11.0048 29.5C11.0048 18.7335 19.7335 10.0063 30.5 10.0063ZM42.5891 27.2936C43.2367 27.906 43.2165 28.7841 42.733 29.4045C42.1416 30.0284 41.2094 30.055 40.6221 29.5484C38.7878 27.8839 36.7805 26.3265 34.9132 24.607C34.9075 24.6805 34.4069 24.2766 34.1936 24.2712C34.0017 24.2712 33.9058 24.4951 33.9058 24.9428C34 26.7906 33.8627 28.7415 34.0737 30.5318C34.1537 31.1875 34.1936 31.5633 34.1936 31.6592L36.3524 43.9407C36.4762 45.0685 35.8597 45.9109 34.8653 46.0995C33.8694 46.3704 32.846 45.5116 32.7064 44.6123C32.7064 44.6123 30.9647 34.6956 30.9314 34.5377C30.898 34.3797 30.8391 33.505 30.4996 33.4583C30.0633 33.6166 30.1139 34.3512 30.0677 34.5377C30.0217 34.7241 28.2927 44.6123 28.2927 44.6123C28.0009 45.6527 27.1041 46.2676 26.1339 46.0995C25.0253 45.8223 24.4834 44.9363 24.6467 43.9407L26.8055 31.6113C27.1243 29.3324 27.0454 27.2939 27.0454 24.9908C27.0454 24.5429 26.9575 24.311 26.7815 24.2952C26.6057 24.2791 26.3738 24.3991 26.0859 24.655L20.3769 29.5484C19.7099 30.0454 18.7774 29.9626 18.266 29.4045C17.7491 28.6659 17.7822 27.8667 18.41 27.2936L25.894 20.6731C26.2459 20.4492 26.5737 20.2973 26.8775 20.2173C27.1814 20.1374 27.5572 20.0974 28.0048 20.0974H32.9942C33.4419 20.0974 33.8178 20.1374 34.1216 20.2173C34.4254 20.2973 34.7533 20.4652 35.1051 20.7211C37.4879 22.8112 40.0177 25.0599 42.5891 27.2936V27.2936ZM33.8012 15.9372C33.8012 17.7495 32.332 19.2187 30.5198 19.2187C28.7075 19.2187 27.2383 17.7495 27.2383 15.9372C27.2383 14.125 28.7075 12.6558 30.5198 12.6558C32.332 12.6558 33.8012 14.125 33.8012 15.9372V15.9372Z" fill="white"/>
</g>
<defs>
<clipPath id="clip0_4829_16425">
<rect width="60" height="60" fill="white"/>
</clipPath>
</defs>
</svg>
