<svg width="60" height="60" viewBox="0 0 60 60" fill="none" xmlns="http://www.w3.org/2000/svg">
<g clip-path="url(#clip0_4763_16404)">
<circle cx="30" cy="30" r="30" fill="#0027C7"/>
<path d="M41.716 11.3068L60.1176 31.8443C59.0094 41.3578 57.1255 45.236 50.0664 52.5378C43.0073 59.8397 30.1423 60.5473 30.6302 60.1195L16.8497 49.3911L7.67332 35.8248L8.00209 25.5223L16.0785 12.725L29.1303 8.26397L41.716 11.3068Z" fill="#011878"/>
<g clip-path="url(#clip1_4763_16404)">
<path d="M29.4191 7.90332H29.3647C16.9391 7.90332 6.86475 17.9777 6.86475 30.4033C6.86475 42.8289 16.9391 52.9033 29.3647 52.9033H29.4191C41.8447 52.9033 51.9191 42.8289 51.9191 30.4033C51.9191 17.9777 41.8447 7.90332 29.4191 7.90332ZM29.4191 51.1033H29.3647C17.9329 51.1033 8.66475 41.8352 8.66475 30.4033C8.66475 18.9714 17.9329 9.70332 29.3647 9.70332H29.4191C40.851 9.70332 50.1191 18.9714 50.1191 30.4033C50.1191 41.8352 40.851 51.1033 29.4191 51.1033Z" fill="white"/>
<path d="M36.591 21.2949C34.7347 21.7636 32.586 22.0674 30.3772 22.1386L30.3285 22.1405V29.5074H37.641C37.5985 26.6519 37.228 23.8107 36.5366 21.0399L36.591 21.2949ZM30.3172 11.6349V20.4943C32.3462 20.4343 34.363 20.1596 36.3341 19.6749L36.1372 19.7161C34.7197 15.2349 32.5129 12.2949 30.3172 11.6349ZM22.6485 19.7049C24.3847 20.1399 26.3985 20.4249 28.4647 20.4924L28.5116 20.4943V11.6143C26.316 12.2518 24.0754 15.1955 22.6485 19.7049ZM42.8966 17.1399C40.4481 14.6373 37.3502 12.8673 33.951 12.0286L33.8216 12.0024C35.63 14.0662 36.9524 16.5092 37.6916 19.1518L37.7216 19.2811C39.5672 18.7249 41.3514 17.9824 43.0466 17.0649L42.8966 17.1399ZM39.2947 29.5074H48.306C48.123 25.4276 46.6135 21.5191 44.0066 18.3755L44.031 18.4074C42.3622 19.3486 40.4254 20.1849 38.3966 20.8168L38.181 20.8749C38.8429 23.453 39.246 26.4211 39.2929 29.4774V29.5093L39.2947 29.5074ZM21.1429 29.5074H28.5191V22.1405C26.3173 22.0779 24.1288 21.7762 21.9922 21.2405L22.2022 21.2855C21.5314 23.9662 21.1759 26.7161 21.1429 29.4793V29.5074ZM37.641 31.3018H30.3172V38.6518C32.5747 38.7174 34.7291 39.0211 36.7991 39.5405L36.5929 39.4974C37.2154 37.0505 37.5941 34.2324 37.641 31.3336V31.3036V31.3018ZM22.2041 39.5124C24.0791 39.0343 26.2466 38.7249 28.476 38.6593L28.521 38.6574V31.3074H21.1429C21.186 34.2399 21.5704 37.0618 22.2566 39.7636L22.2022 39.5124H22.2041ZM28.5229 49.1836V40.3018C26.4041 40.3711 24.3885 40.6543 22.4479 41.1324L22.6485 41.0911C24.0772 45.6024 26.316 48.5518 28.5229 49.1836ZM33.8216 48.8049C37.2713 47.9721 40.4184 46.189 42.906 43.658L42.9097 43.6543C41.3261 42.797 39.6618 42.098 37.941 41.5674L37.7385 41.513C36.9982 44.2171 35.6531 46.7176 33.8047 48.8255L33.8235 48.8049H33.8216ZM24.951 12.0249C21.5304 12.8623 18.4111 14.6369 15.9435 17.1493L15.9397 17.153C17.3929 17.948 19.086 18.668 20.856 19.2193L21.0566 19.2736C21.7967 16.5876 23.1337 14.1034 24.9679 12.0061L24.9491 12.0268L24.951 12.0249ZM38.181 39.9343C40.4291 40.6186 42.3716 41.4568 44.196 42.4786L44.0441 42.3999C46.6304 39.2757 48.1297 35.3946 48.3154 31.343L48.3172 31.2999H39.306C39.2514 34.304 38.8545 37.292 38.1229 40.2061L38.181 39.9343ZM30.3172 40.3018V49.1705C32.5129 48.5105 34.7197 45.5705 36.1372 41.0799C34.2444 40.6179 32.308 40.3571 30.3604 40.3018L30.3172 40.2999V40.3018ZM20.6141 20.8618C18.541 20.2383 16.5428 19.3888 14.6554 18.3286L14.8035 18.4055C12.2172 21.5297 10.7179 25.4108 10.5322 29.4624L10.5304 29.5055H19.4966C19.5397 26.4174 19.9447 23.4436 20.6704 20.5974L20.6141 20.8599V20.8618ZM19.4872 31.3018H10.521C10.7216 35.5505 12.3022 39.3943 14.8204 42.4336L14.796 42.4018C16.4516 41.4661 18.3772 40.6336 20.391 40.0036L20.6047 39.9455C19.9063 37.128 19.532 34.2399 19.4891 31.3374V31.3018H19.4872ZM15.9304 43.6543C18.3663 46.1427 21.4438 47.9079 24.8216 48.7543L24.951 48.7824C23.1481 46.723 21.8267 44.2877 21.0829 41.6536L21.051 41.5224C19.2238 42.0832 17.4565 42.823 15.7747 43.7311L15.9304 43.6543Z" fill="white"/>
</g>
</g>
<defs>
<clipPath id="clip0_4763_16404">
<rect width="60" height="60" fill="white"/>
</clipPath>
<clipPath id="clip1_4763_16404">
<rect width="45" height="45" fill="white" transform="translate(6.91895 7.90332)"/>
</clipPath>
</defs>
</svg>
